solid car_top2
facet normal 0.7165696817856013 0.6975155131935649 0.0
  outer loop
    vertex -2.164005106490261 -1.6146460600032624 2.199999999999998
    vertex -1.672367269151777 -2.1197140649318285 2.399999999999998
    vertex -1.672367269151777 -2.1197140649318285 2.199999999999998
  endloop
endfacet
facet normal 0.7165696817856013 0.6975155131935649 0.0
  outer loop
    vertex -1.672367269151777 -2.1197140649318285 2.399999999999998
    vertex -2.164005106490261 -1.6146460600032624 2.199999999999998
    vertex -2.164005106490261 -1.6146460600032624 2.399999999999998
  endloop
endfacet
facet normal 0.7100839030725118 -0.7041107376834388 0.002986582694531736
  outer loop
    vertex 1.889803705034645 2.9340085524022723 3.199999999999998
    vertex 0.317491983534322 1.3517789056559701 4.0063933065952915
    vertex 0.7206886368319665 1.7549755589536207 3.199999999999998
  endloop
endfacet
facet normal 0.013473331821300508 0.9999092305452696 0.0
  outer loop
    vertex -0.3884555070771309 -2.6719098635660306 2.399999999999998
    vertex 0.31632195283814907 -2.681406426141449 2.199999999999998
    vertex -0.3884555070771309 -2.6719098635660306 2.199999999999998
  endloop
endfacet
facet normal 0.013473331821300508 0.9999092305452696 0.0
  outer loop
    vertex 0.31632195283814907 -2.681406426141449 2.199999999999998
    vertex -0.3884555070771309 -2.6719098635660306 2.399999999999998
    vertex 0.31632195283814907 -2.681406426141449 2.399999999999998
  endloop
endfacet
facet normal -0.2457813130665663 0.9693253046048447 0.0
  outer loop
    vertex 0.31632195283814907 -2.681406426141449 2.399999999999998
    vertex 0.9995425944142563 -2.508169572008963 2.199999999999998
    vertex 0.31632195283814907 -2.681406426141449 2.199999999999998
  endloop
endfacet
facet normal -0.2457813130665663 0.9693253046048447 0.0
  outer loop
    vertex 0.9995425944142563 -2.508169572008963 2.199999999999998
    vertex 0.31632195283814907 -2.681406426141449 2.399999999999998
    vertex 0.9995425944142563 -2.508169572008963 2.399999999999998
  endloop
endfacet
facet normal 0.0 1.0 0.0
  outer loop
    vertex -3.9999999999999964 3.9999999999999996 3.199999999999998
    vertex 4.000000000000005 3.9999999999999996 2.199999999999998
    vertex -3.9999999999999964 3.9999999999999996 2.199999999999998
  endloop
endfacet
facet normal 0.0 1.0 0.0
  outer loop
    vertex 4.000000000000005 3.9999999999999996 2.199999999999998
    vertex -3.9999999999999964 3.9999999999999996 3.199999999999998
    vertex 4.000000000000005 3.9999999999999996 3.199999999999998
  endloop
endfacet
facet normal -0.9238795325112867 0.38268343236509006 0.0
  outer loop
    vertex -0.9959292143521009 0.5750000000000013 2.399999999999998
    vertex -1.1108147002324251 0.29764190186790007 -1.9739765377835285e-15
    vertex -1.1108147002324251 0.29764190186790007 2.399999999999998
  endloop
endfacet
facet normal -0.9238795325112867 0.38268343236509006 0.0
  outer loop
    vertex -1.1108147002324251 0.29764190186790007 -1.9739765377835285e-15
    vertex -0.9959292143521009 0.5750000000000013 2.399999999999998
    vertex -0.9959292143521009 0.5750000000000013 -1.9739765377835285e-15
  endloop
endfacet
facet normal -0.48828636764177213 0.8726834610414043 0.0
  outer loop
    vertex 0.9995425944142563 -2.508169572008963 2.399999999999998
    vertex 1.614646060003267 -2.164005106490263 2.199999999999998
    vertex 0.9995425944142563 -2.508169572008963 2.199999999999998
  endloop
endfacet
facet normal -0.48828636764177213 0.8726834610414043 0.0
  outer loop
    vertex 1.614646060003267 -2.164005106490263 2.199999999999998
    vertex 0.9995425944142563 -2.508169572008963 2.399999999999998
    vertex 1.614646060003267 -2.164005106490263 2.399999999999998
  endloop
endfacet
facet normal 0.8592101292201044 -0.5116228629034983 0.0
  outer loop
    vertex -2.119714064931826 1.6723672691517804 2.199999999999998
    vertex -2.4803270593284075 1.0667603661381873 2.399999999999998
    vertex -2.4803270593284075 1.0667603661381873 2.199999999999998
  endloop
endfacet
facet normal 0.8592101292201044 -0.5116228629034983 0.0
  outer loop
    vertex -2.4803270593284075 1.0667603661381873 2.399999999999998
    vertex -2.119714064931826 1.6723672691517804 2.199999999999998
    vertex -2.119714064931826 1.6723672691517804 2.399999999999998
  endloop
endfacet
facet normal 0.48828636764177175 -0.8726834610414045 0.0
  outer loop
    vertex -0.999542594414249 2.5081695720089643 2.399999999999998
    vertex -1.6146460600032597 2.1640051064902655 2.199999999999998
    vertex -0.999542594414249 2.5081695720089643 2.199999999999998
  endloop
endfacet
facet normal 0.48828636764177175 -0.8726834610414045 0.0
  outer loop
    vertex -1.6146460600032597 2.1640051064902655 2.199999999999998
    vertex -0.999542594414249 2.5081695720089643 2.399999999999998
    vertex -1.6146460600032597 2.1640051064902655 2.399999999999998
  endloop
endfacet
facet normal 0.6087614290087205 -0.7933533402912353 0.0
  outer loop
    vertex 0.8131727983645328 -0.8131727983645289 2.399999999999998
    vertex 0.5750000000000035 -0.9959292143521037 -1.9739765377835285e-15
    vertex 0.8131727983645328 -0.8131727983645289 -1.9739765377835285e-15
  endloop
endfacet
facet normal 0.6087614290087205 -0.7933533402912353 0.0
  outer loop
    vertex 0.5750000000000035 -0.9959292143521037 -1.9739765377835285e-15
    vertex 0.8131727983645328 -0.8131727983645289 2.399999999999998
    vertex 0.5750000000000035 -0.9959292143521037 2.399999999999998
  endloop
endfacet
facet normal 0.6975155131935651 -0.7165696817856011 0.0
  outer loop
    vertex -1.6146460600032597 2.1640051064902655 2.399999999999998
    vertex -2.119714064931826 1.6723672691517804 2.199999999999998
    vertex -1.6146460600032597 2.1640051064902655 2.199999999999998
  endloop
endfacet
facet normal 0.6975155131935651 -0.7165696817856011 0.0
  outer loop
    vertex -2.119714064931826 1.6723672691517804 2.199999999999998
    vertex -1.6146460600032597 2.1640051064902655 2.399999999999998
    vertex -2.119714064931826 1.6723672691517804 2.399999999999998
  endloop
endfacet
facet normal -0.511622862903498 -0.8592101292201045 -0.0
  outer loop
    vertex 1.6723672691517826 2.11971406493183 2.399999999999998
    vertex 1.066760366138189 2.480327059328412 2.199999999999998
    vertex 1.6723672691517826 2.11971406493183 2.199999999999998
  endloop
endfacet
facet normal -0.511622862903498 -0.8592101292201045 -0.0
  outer loop
    vertex 1.066760366138189 2.480327059328412 2.199999999999998
    vertex 1.6723672691517826 2.11971406493183 2.399999999999998
    vertex 1.066760366138189 2.480327059328412 2.399999999999998
  endloop
endfacet
facet normal 0.0 0.0 -1.0
  outer loop
    vertex -1.1108147002324251 0.29764190186790007 -1.9739765377835285e-15
    vertex -1.1108147002324251 -0.2976419018678978 -1.9739765377835285e-15
    vertex -1.1499999999999968 5.639932965095795e-16 -1.9739765377835285e-15
  endloop
endfacet
facet normal 0.0 0.0 -1.0
  outer loop
    vertex -1.1108147002324251 -0.2976419018678978 -1.9739765377835285e-15
    vertex -1.1108147002324251 0.29764190186790007 -1.9739765377835285e-15
    vertex -0.9959292143521009 0.5750000000000013 -1.9739765377835285e-15
  endloop
endfacet
facet normal 0.0 0.0 -1.0
  outer loop
    vertex -1.1108147002324251 -0.2976419018678978 -1.9739765377835285e-15
    vertex -0.9959292143521009 0.5750000000000013 -1.9739765377835285e-15
    vertex -0.9959292143521015 -0.5749999999999984 -1.9739765377835285e-15
  endloop
endfacet
facet normal 0.0 0.0 -1.0
  outer loop
    vertex -0.9959292143521015 -0.5749999999999984 -1.9739765377835285e-15
    vertex -0.9959292143521009 0.5750000000000013 -1.9739765377835285e-15
    vertex -0.813172798364526 -0.8131727983645289 -1.9739765377835285e-15
  endloop
endfacet
facet normal 0.0 0.0 -1.0
  outer loop
    vertex -0.813172798364526 -0.8131727983645289 -1.9739765377835285e-15
    vertex -0.9959292143521009 0.5750000000000013 -1.9739765377835285e-15
    vertex -0.813172798364526 0.8131727983645306 -1.9739765377835285e-15
  endloop
endfacet
facet normal 0.0 0.0 -1.0
  outer loop
    vertex -0.813172798364526 -0.8131727983645289 -1.9739765377835285e-15
    vertex -0.813172798364526 0.8131727983645306 -1.9739765377835285e-15
    vertex -0.5749999999999962 0.9959292143521054 -1.9739765377835285e-15
  endloop
endfacet
facet normal 0.0 0.0 -1.0
  outer loop
    vertex -0.813172798364526 -0.8131727983645289 -1.9739765377835285e-15
    vertex -0.5749999999999962 0.9959292143521054 -1.9739765377835285e-15
    vertex -0.5749999999999973 -0.9959292143521037 -1.9739765377835285e-15
  endloop
endfacet
facet normal 0.0 0.0 -1.0
  outer loop
    vertex -0.5749999999999973 -0.9959292143521037 -1.9739765377835285e-15
    vertex -0.5749999999999962 0.9959292143521054 -1.9739765377835285e-15
    vertex -0.29764190186789613 -1.1108147002324278 -1.9739765377835285e-15
  endloop
endfacet
facet normal 0.0 0.0 -1.0
  outer loop
    vertex -0.29764190186789613 -1.1108147002324278 -1.9739765377835285e-15
    vertex -0.5749999999999962 0.9959292143521054 -1.9739765377835285e-15
    vertex -0.297641901867895 1.110814700232429 -1.9739765377835285e-15
  endloop
endfacet
facet normal 0.0 0.0 -1.0
  outer loop
    vertex -0.29764190186789613 -1.1108147002324278 -1.9739765377835285e-15
    vertex -0.297641901867895 1.110814700232429 -1.9739765377835285e-15
    vertex 3.383959779057477e-15 -1.149999999999999 -1.9739765377835285e-15
  endloop
endfacet
facet normal 0.0 0.0 -1.0
  outer loop
    vertex 3.383959779057477e-15 -1.149999999999999 -1.9739765377835285e-15
    vertex -0.297641901867895 1.110814700232429 -1.9739765377835285e-15
    vertex 3.383959779057477e-15 1.1500000000000001 -1.9739765377835285e-15
  endloop
endfacet
facet normal 0.0 0.0 -1.0
  outer loop
    vertex 3.383959779057477e-15 -1.149999999999999 -1.9739765377835285e-15
    vertex 3.383959779057477e-15 1.1500000000000001 -1.9739765377835285e-15
    vertex 0.29764190186790235 1.110814700232429 -1.9739765377835285e-15
  endloop
endfacet
facet normal 0.0 0.0 -1.0
  outer loop
    vertex 3.383959779057477e-15 -1.149999999999999 -1.9739765377835285e-15
    vertex 0.29764190186790235 1.110814700232429 -1.9739765377835285e-15
    vertex 0.29764190186790235 -1.1108147002324278 -1.9739765377835285e-15
  endloop
endfacet
facet normal 0.0 0.0 -1.0
  outer loop
    vertex 0.29764190186790235 -1.1108147002324278 -1.9739765377835285e-15
    vertex 0.29764190186790235 1.110814700232429 -1.9739765377835285e-15
    vertex 0.5750000000000035 0.9959292143521048 -1.9739765377835285e-15
  endloop
endfacet
facet normal 0.0 0.0 -1.0
  outer loop
    vertex 0.29764190186790235 -1.1108147002324278 -1.9739765377835285e-15
    vertex 0.5750000000000035 0.9959292143521048 -1.9739765377835285e-15
    vertex 0.5750000000000035 -0.9959292143521037 -1.9739765377835285e-15
  endloop
endfacet
facet normal 0.0 0.0 -1.0
  outer loop
    vertex 0.5750000000000035 -0.9959292143521037 -1.9739765377835285e-15
    vertex 0.5750000000000035 0.9959292143521048 -1.9739765377835285e-15
    vertex 0.8131727983645328 0.81317279836453 -1.9739765377835285e-15
  endloop
endfacet
facet normal 0.0 0.0 -1.0
  outer loop
    vertex 0.5750000000000035 -0.9959292143521037 -1.9739765377835285e-15
    vertex 0.8131727983645328 0.81317279836453 -1.9739765377835285e-15
    vertex 0.8131727983645328 -0.8131727983645289 -1.9739765377835285e-15
  endloop
endfacet
facet normal 0.0 0.0 -1.0
  outer loop
    vertex 0.8131727983645328 -0.8131727983645289 -1.9739765377835285e-15
    vertex 0.8131727983645328 0.81317279836453 -1.9739765377835285e-15
    vertex 0.9959292143521077 0.5750000000000001 -1.9739765377835285e-15
  endloop
endfacet
facet normal 0.0 0.0 -1.0
  outer loop
    vertex 0.8131727983645328 -0.8131727983645289 -1.9739765377835285e-15
    vertex 0.9959292143521077 0.5750000000000001 -1.9739765377835285e-15
    vertex 0.9959292143521077 -0.5749999999999995 -1.9739765377835285e-15
  endloop
endfacet
facet normal 0.0 0.0 -1.0
  outer loop
    vertex 0.9959292143521077 -0.5749999999999995 -1.9739765377835285e-15
    vertex 0.9959292143521077 0.5750000000000001 -1.9739765377835285e-15
    vertex 1.1108147002324325 0.2976419018678995 -1.9739765377835285e-15
  endloop
endfacet
facet normal 0.0 0.0 -1.0
  outer loop
    vertex 0.9959292143521077 -0.5749999999999995 -1.9739765377835285e-15
    vertex 1.1108147002324325 0.2976419018678995 -1.9739765377835285e-15
    vertex 1.1108147002324313 -0.2976419018678984 -1.9739765377835285e-15
  endloop
endfacet
facet normal 0.0 0.0 -1.0
  outer loop
    vertex 1.1108147002324313 -0.2976419018678984 -1.9739765377835285e-15
    vertex 1.1108147002324325 0.2976419018678995 -1.9739765377835285e-15
    vertex 1.1500000000000037 5.639932965095795e-16 -1.9739765377835285e-15
  endloop
endfacet
facet normal -0.962350994852168 0.27180979141127865 0.0
  outer loop
    vertex 2.6719098635660345 -0.3884555070771331 2.399999999999998
    vertex 2.480327059328414 -1.066760366138185 2.199999999999998
    vertex 2.480327059328414 -1.066760366138185 2.399999999999998
  endloop
endfacet
facet normal -0.962350994852168 0.27180979141127865 0.0
  outer loop
    vertex 2.480327059328414 -1.066760366138185 2.199999999999998
    vertex 2.6719098635660345 -0.3884555070771331 2.399999999999998
    vertex 2.6719098635660345 -0.3884555070771331 2.199999999999998
  endloop
endfacet
facet normal 0.9238795325112866 0.3826834323650901 0.0
  outer loop
    vertex 0.9959292143521077 0.5750000000000001 -1.9739765377835285e-15
    vertex 1.1108147002324325 0.2976419018678995 2.399999999999998
    vertex 1.1108147002324325 0.2976419018678995 -1.9739765377835285e-15
  endloop
endfacet
facet normal 0.9238795325112866 0.3826834323650901 0.0
  outer loop
    vertex 1.1108147002324325 0.2976419018678995 2.399999999999998
    vertex 0.9959292143521077 0.5750000000000001 -1.9739765377835285e-15
    vertex 0.9959292143521077 0.5750000000000001 2.399999999999998
  endloop
endfacet
facet normal -0.716569681785601 -0.6975155131935653 -0.0
  outer loop
    vertex 1.6723672691517826 2.11971406493183 2.399999999999998
    vertex 2.1640051064902663 1.6146460600032635 2.199999999999998
    vertex 2.1640051064902663 1.6146460600032635 2.399999999999998
  endloop
endfacet
facet normal -0.716569681785601 -0.6975155131935653 -0.0
  outer loop
    vertex 2.1640051064902663 1.6146460600032635 2.199999999999998
    vertex 1.6723672691517826 2.11971406493183 2.399999999999998
    vertex 1.6723672691517826 2.11971406493183 2.199999999999998
  endloop
endfacet
facet normal 0.7933533402912354 0.6087614290087204 0.0
  outer loop
    vertex 0.8131727983645328 0.81317279836453 -1.9739765377835285e-15
    vertex 0.9959292143521077 0.5750000000000001 2.399999999999998
    vertex 0.9959292143521077 0.5750000000000001 -1.9739765377835285e-15
  endloop
endfacet
facet normal 0.7933533402912354 0.6087614290087204 0.0
  outer loop
    vertex 0.9959292143521077 0.5750000000000001 2.399999999999998
    vertex 0.8131727983645328 0.81317279836453 -1.9739765377835285e-15
    vertex 0.8131727983645328 0.81317279836453 2.399999999999998
  endloop
endfacet
facet normal 1.0 0.0 0.0
  outer loop
    vertex 4.000000000000005 3.9999999999999996 2.199999999999998
    vertex 4.000000000000005 -4.000000000000004 3.199999999999998
    vertex 4.000000000000005 -4.000000000000004 2.199999999999998
  endloop
endfacet
facet normal 1.0 0.0 0.0
  outer loop
    vertex 4.000000000000005 -4.000000000000004 3.199999999999998
    vertex 4.000000000000005 3.9999999999999996 2.199999999999998
    vertex 4.000000000000005 3.9999999999999996 3.199999999999998
  endloop
endfacet
facet normal 0.9914448613738106 0.13052619222005135 0.0
  outer loop
    vertex 1.1108147002324325 0.2976419018678995 -1.9739765377835285e-15
    vertex 1.1500000000000037 5.639932965095795e-16 2.399999999999998
    vertex 1.1500000000000037 5.639932965095795e-16 -1.9739765377835285e-15
  endloop
endfacet
facet normal 0.9914448613738106 0.13052619222005135 0.0
  outer loop
    vertex 1.1500000000000037 5.639932965095795e-16 2.399999999999998
    vertex 1.1108147002324325 0.2976419018678995 -1.9739765377835285e-15
    vertex 1.1108147002324325 0.2976419018678995 2.399999999999998
  endloop
endfacet
facet normal -0.9693253046048445 -0.2457813130665669 -0.0
  outer loop
    vertex 2.5081695720089665 0.999542594414253 2.399999999999998
    vertex 2.681406426141453 0.31632195283814796 2.199999999999998
    vertex 2.681406426141453 0.31632195283814796 2.399999999999998
  endloop
endfacet
facet normal -0.9693253046048445 -0.2457813130665669 -0.0
  outer loop
    vertex 2.681406426141453 0.31632195283814796 2.199999999999998
    vertex 2.5081695720089665 0.999542594414253 2.399999999999998
    vertex 2.5081695720089665 0.999542594414253 2.199999999999998
  endloop
endfacet
facet normal 0.24578131306656695 -0.9693253046048445 0.0
  outer loop
    vertex -0.316321952838144 2.6814064261414496 2.399999999999998
    vertex -0.999542594414249 2.5081695720089643 2.199999999999998
    vertex -0.316321952838144 2.6814064261414496 2.199999999999998
  endloop
endfacet
facet normal 0.24578131306656695 -0.9693253046048445 0.0
  outer loop
    vertex -0.999542594414249 2.5081695720089643 2.199999999999998
    vertex -0.316321952838144 2.6814064261414496 2.399999999999998
    vertex -0.999542594414249 2.5081695720089643 2.399999999999998
  endloop
endfacet
facet normal 0.38268343236509006 -0.9238795325112866 0.0
  outer loop
    vertex 0.5750000000000035 -0.9959292143521037 2.399999999999998
    vertex 0.29764190186790235 -1.1108147002324278 -1.9739765377835285e-15
    vertex 0.5750000000000035 -0.9959292143521037 -1.9739765377835285e-15
  endloop
endfacet
facet normal 0.38268343236509006 -0.9238795325112866 0.0
  outer loop
    vertex 0.29764190186790235 -1.1108147002324278 -1.9739765377835285e-15
    vertex 0.5750000000000035 -0.9959292143521037 2.399999999999998
    vertex 0.29764190186790235 -1.1108147002324278 2.399999999999998
  endloop
endfacet
facet normal 0.9914448613738104 -0.13052619222005168 0.0
  outer loop
    vertex 1.1500000000000037 5.639932965095795e-16 -1.9739765377835285e-15
    vertex 1.1108147002324313 -0.2976419018678984 2.399999999999998
    vertex 1.1108147002324313 -0.2976419018678984 -1.9739765377835285e-15
  endloop
endfacet
facet normal 0.9914448613738104 -0.13052619222005168 0.0
  outer loop
    vertex 1.1108147002324313 -0.2976419018678984 2.399999999999998
    vertex 1.1500000000000037 5.639932965095795e-16 -1.9739765377835285e-15
    vertex 1.1500000000000037 5.639932965095795e-16 2.399999999999998
  endloop
endfacet
facet normal 0.38268343236509 0.9238795325112868 0.0
  outer loop
    vertex 0.29764190186790235 1.110814700232429 2.399999999999998
    vertex 0.5750000000000035 0.9959292143521048 -1.9739765377835285e-15
    vertex 0.29764190186790235 1.110814700232429 -1.9739765377835285e-15
  endloop
endfacet
facet normal 0.38268343236509 0.9238795325112868 0.0
  outer loop
    vertex 0.5750000000000035 0.9959292143521048 -1.9739765377835285e-15
    vertex 0.29764190186790235 1.110814700232429 2.399999999999998
    vertex 0.5750000000000035 0.9959292143521048 2.399999999999998
  endloop
endfacet
facet normal -0.8726834610414043 -0.4882863676417721 -0.0
  outer loop
    vertex 2.1640051064902663 1.6146460600032635 2.399999999999998
    vertex 2.5081695720089665 0.999542594414253 2.199999999999998
    vertex 2.5081695720089665 0.999542594414253 2.399999999999998
  endloop
endfacet
facet normal -0.8726834610414043 -0.4882863676417721 -0.0
  outer loop
    vertex 2.5081695720089665 0.999542594414253 2.199999999999998
    vertex 2.1640051064902663 1.6146460600032635 2.399999999999998
    vertex 2.1640051064902663 1.6146460600032635 2.199999999999998
  endloop
endfacet
facet normal -0.013473331821300484 -0.9999092305452697 -0.0
  outer loop
    vertex 0.38845550707713766 2.6719098635660323 2.399999999999998
    vertex -0.316321952838144 2.6814064261414496 2.199999999999998
    vertex 0.38845550707713766 2.6719098635660323 2.199999999999998
  endloop
endfacet
facet normal -0.013473331821300484 -0.9999092305452697 -0.0
  outer loop
    vertex -0.316321952838144 2.6814064261414496 2.199999999999998
    vertex 0.38845550707713766 2.6719098635660323 2.399999999999998
    vertex -0.316321952838144 2.6814064261414496 2.399999999999998
  endloop
endfacet
facet normal -0.3826834323650905 -0.9238795325112865 -0.0
  outer loop
    vertex -0.29764190186789613 -1.1108147002324278 2.399999999999998
    vertex -0.5749999999999973 -0.9959292143521037 -1.9739765377835285e-15
    vertex -0.29764190186789613 -1.1108147002324278 -1.9739765377835285e-15
  endloop
endfacet
facet normal -0.3826834323650905 -0.9238795325112865 -0.0
  outer loop
    vertex -0.5749999999999973 -0.9959292143521037 -1.9739765377835285e-15
    vertex -0.29764190186789613 -1.1108147002324278 2.399999999999998
    vertex -0.5749999999999973 -0.9959292143521037 2.399999999999998
  endloop
endfacet
facet normal 0.0 0.0 -1.0
  outer loop
    vertex -3.9999999999999964 3.9999999999999996 2.199999999999998
    vertex -2.4803270593284075 1.0667603661381873 2.199999999999998
    vertex -3.9999999999999964 -4.000000000000004 2.199999999999998
  endloop
endfacet
facet normal 0.0 0.0 -1.0
  outer loop
    vertex -2.4803270593284075 1.0667603661381873 2.199999999999998
    vertex -3.9999999999999964 3.9999999999999996 2.199999999999998
    vertex -2.119714064931826 1.6723672691517804 2.199999999999998
  endloop
endfacet
facet normal 0.0 0.0 -1.0
  outer loop
    vertex -2.119714064931826 1.6723672691517804 2.199999999999998
    vertex -3.9999999999999964 3.9999999999999996 2.199999999999998
    vertex -1.6146460600032597 2.1640051064902655 2.199999999999998
  endloop
endfacet
facet normal 0.0 0.0 -1.0
  outer loop
    vertex -1.6146460600032597 2.1640051064902655 2.199999999999998
    vertex -3.9999999999999964 3.9999999999999996 2.199999999999998
    vertex -0.999542594414249 2.5081695720089643 2.199999999999998
  endloop
endfacet
facet normal 0.0 0.0 -1.0
  outer loop
    vertex -0.999542594414249 2.5081695720089643 2.199999999999998
    vertex -3.9999999999999964 3.9999999999999996 2.199999999999998
    vertex 4.000000000000005 3.9999999999999996 2.199999999999998
  endloop
endfacet
facet normal 0.0 0.0 -1.0
  outer loop
    vertex -3.9999999999999964 -4.000000000000004 2.199999999999998
    vertex -2.4803270593284075 1.0667603661381873 2.199999999999998
    vertex -2.671909863566028 0.38845550707713483 2.199999999999998
  endloop
endfacet
facet normal 0.0 0.0 -1.0
  outer loop
    vertex -3.9999999999999964 -4.000000000000004 2.199999999999998
    vertex -2.671909863566028 0.38845550707713483 2.199999999999998
    vertex -2.6814064261414465 -0.3163219528381451 2.199999999999998
  endloop
endfacet
facet normal 0.0 0.0 -1.0
  outer loop
    vertex -0.999542594414249 2.5081695720089643 2.199999999999998
    vertex 4.000000000000005 3.9999999999999996 2.199999999999998
    vertex -0.316321952838144 2.6814064261414496 2.199999999999998
  endloop
endfacet
facet normal 0.0 0.0 -1.0
  outer loop
    vertex -0.316321952838144 2.6814064261414496 2.199999999999998
    vertex 4.000000000000005 3.9999999999999996 2.199999999999998
    vertex 0.38845550707713766 2.6719098635660323 2.199999999999998
  endloop
endfacet
facet normal 0.0 0.0 -1.0
  outer loop
    vertex 0.38845550707713766 2.6719098635660323 2.199999999999998
    vertex 4.000000000000005 3.9999999999999996 2.199999999999998
    vertex 1.066760366138189 2.480327059328412 2.199999999999998
  endloop
endfacet
facet normal 0.0 0.0 -1.0
  outer loop
    vertex 1.066760366138189 2.480327059328412 2.199999999999998
    vertex 4.000000000000005 3.9999999999999996 2.199999999999998
    vertex 1.6723672691517826 2.11971406493183 2.199999999999998
  endloop
endfacet
facet normal 0.0 0.0 -1.0
  outer loop
    vertex 1.6723672691517826 2.11971406493183 2.199999999999998
    vertex 4.000000000000005 3.9999999999999996 2.199999999999998
    vertex 2.1640051064902663 1.6146460600032635 2.199999999999998
  endloop
endfacet
facet normal 0.0 0.0 -1.0
  outer loop
    vertex 2.1640051064902663 1.6146460600032635 2.199999999999998
    vertex 4.000000000000005 3.9999999999999996 2.199999999999998
    vertex 2.5081695720089665 0.999542594414253 2.199999999999998
  endloop
endfacet
facet normal 0.0 0.0 -1.0
  outer loop
    vertex 2.5081695720089665 0.999542594414253 2.199999999999998
    vertex 4.000000000000005 3.9999999999999996 2.199999999999998
    vertex 2.681406426141453 0.31632195283814796 2.199999999999998
  endloop
endfacet
facet normal 0.0 0.0 -1.0
  outer loop
    vertex -3.9999999999999964 -4.000000000000004 2.199999999999998
    vertex -1.0667603661381828 -2.480327059328411 2.199999999999998
    vertex 4.000000000000005 -4.000000000000004 2.199999999999998
  endloop
endfacet
facet normal 0.0 0.0 -1.0
  outer loop
    vertex -1.0667603661381828 -2.480327059328411 2.199999999999998
    vertex -3.9999999999999964 -4.000000000000004 2.199999999999998
    vertex -1.672367269151777 -2.1197140649318285 2.199999999999998
  endloop
endfacet
facet normal 0.0 0.0 -1.0
  outer loop
    vertex -1.672367269151777 -2.1197140649318285 2.199999999999998
    vertex -3.9999999999999964 -4.000000000000004 2.199999999999998
    vertex -2.164005106490261 -1.6146460600032624 2.199999999999998
  endloop
endfacet
facet normal 0.0 0.0 -1.0
  outer loop
    vertex -2.164005106490261 -1.6146460600032624 2.199999999999998
    vertex -3.9999999999999964 -4.000000000000004 2.199999999999998
    vertex -2.5081695720089603 -0.9995425944142519 2.199999999999998
  endloop
endfacet
facet normal 0.0 0.0 -1.0
  outer loop
    vertex -2.5081695720089603 -0.9995425944142519 2.199999999999998
    vertex -3.9999999999999964 -4.000000000000004 2.199999999999998
    vertex -2.6814064261414465 -0.3163219528381451 2.199999999999998
  endloop
endfacet
facet normal 0.0 0.0 -1.0
  outer loop
    vertex 4.000000000000005 -4.000000000000004 2.199999999999998
    vertex -1.0667603661381828 -2.480327059328411 2.199999999999998
    vertex -0.3884555070771309 -2.6719098635660306 2.199999999999998
  endloop
endfacet
facet normal 0.0 0.0 -1.0
  outer loop
    vertex 4.000000000000005 -4.000000000000004 2.199999999999998
    vertex -0.3884555070771309 -2.6719098635660306 2.199999999999998
    vertex 0.31632195283814907 -2.681406426141449 2.199999999999998
  endloop
endfacet
facet normal 0.0 0.0 -1.0
  outer loop
    vertex 4.000000000000005 -4.000000000000004 2.199999999999998
    vertex 0.31632195283814907 -2.681406426141449 2.199999999999998
    vertex 0.9995425944142563 -2.508169572008963 2.199999999999998
  endloop
endfacet
facet normal 0.0 0.0 -1.0
  outer loop
    vertex 4.000000000000005 -4.000000000000004 2.199999999999998
    vertex 0.9995425944142563 -2.508169572008963 2.199999999999998
    vertex 1.614646060003267 -2.164005106490263 2.199999999999998
  endloop
endfacet
facet normal 0.0 0.0 -1.0
  outer loop
    vertex 4.000000000000005 -4.000000000000004 2.199999999999998
    vertex 1.614646060003267 -2.164005106490263 2.199999999999998
    vertex 2.1197140649318333 -1.6723672691517784 2.199999999999998
  endloop
endfacet
facet normal 0.0 0.0 -1.0
  outer loop
    vertex 4.000000000000005 -4.000000000000004 2.199999999999998
    vertex 2.1197140649318333 -1.6723672691517784 2.199999999999998
    vertex 2.480327059328414 -1.066760366138185 2.199999999999998
  endloop
endfacet
facet normal 0.0 0.0 -1.0
  outer loop
    vertex 4.000000000000005 -4.000000000000004 2.199999999999998
    vertex 2.480327059328414 -1.066760366138185 2.199999999999998
    vertex 2.6719098635660345 -0.3884555070771331 2.199999999999998
  endloop
endfacet
facet normal 0.0 0.0 -1.0
  outer loop
    vertex 4.000000000000005 -4.000000000000004 2.199999999999998
    vertex 2.6719098635660345 -0.3884555070771331 2.199999999999998
    vertex 2.681406426141453 0.31632195283814796 2.199999999999998
  endloop
endfacet
facet normal 0.0 0.0 -1.0
  outer loop
    vertex 4.000000000000005 -4.000000000000004 2.199999999999998
    vertex 2.681406426141453 0.31632195283814796 2.199999999999998
    vertex 4.000000000000005 3.9999999999999996 2.199999999999998
  endloop
endfacet
facet normal 0.9999092305452696 -0.013473331821300508 0.0
  outer loop
    vertex -2.671909863566028 0.38845550707713483 2.199999999999998
    vertex -2.6814064261414465 -0.3163219528381451 2.399999999999998
    vertex -2.6814064261414465 -0.3163219528381451 2.199999999999998
  endloop
endfacet
facet normal 0.9999092305452696 -0.013473331821300508 0.0
  outer loop
    vertex -2.6814064261414465 -0.3163219528381451 2.399999999999998
    vertex -2.671909863566028 0.38845550707713483 2.199999999999998
    vertex -2.671909863566028 0.38845550707713483 2.399999999999998
  endloop
endfacet
facet normal -4.012233477244552e-18 0.8944271909999141 0.4472135954999615
  outer loop
    vertex -2.412538016465674 1.3517789056559701 4.0063933065952915
    vertex 0.7206886368319665 1.7549755589536207 3.199999999999998
    vertex -2.81573466976332 1.7549755589536207 3.199999999999998
  endloop
endfacet
facet normal -4.012233477244552e-18 0.8944271909999141 0.4472135954999615
  outer loop
    vertex 0.7206886368319665 1.7549755589536207 3.199999999999998
    vertex -2.412538016465674 1.3517789056559701 4.0063933065952915
    vertex 0.317491983534322 1.3517789056559701 4.0063933065952915
  endloop
endfacet
facet normal -0.6087614290087202 0.7933533402912357 0.0
  outer loop
    vertex -0.813172798364526 0.8131727983645306 2.399999999999998
    vertex -0.5749999999999962 0.9959292143521054 -1.9739765377835285e-15
    vertex -0.813172798364526 0.8131727983645306 -1.9739765377835285e-15
  endloop
endfacet
facet normal -0.6087614290087202 0.7933533402912357 0.0
  outer loop
    vertex -0.5749999999999962 0.9959292143521054 -1.9739765377835285e-15
    vertex -0.813172798364526 0.8131727983645306 2.399999999999998
    vertex -0.5749999999999962 0.9959292143521054 2.399999999999998
  endloop
endfacet
facet normal -0.0 -1.0 -0.0
  outer loop
    vertex 4.000000000000005 -4.000000000000004 3.199999999999998
    vertex -3.9999999999999964 -4.000000000000004 2.199999999999998
    vertex 4.000000000000005 -4.000000000000004 2.199999999999998
  endloop
endfacet
facet normal -0.0 -1.0 -0.0
  outer loop
    vertex -3.9999999999999964 -4.000000000000004 2.199999999999998
    vertex 4.000000000000005 -4.000000000000004 3.199999999999998
    vertex -3.9999999999999964 -4.000000000000004 3.199999999999998
  endloop
endfacet
facet normal -0.894427190999916 -3.457389513735267e-17 0.4472135954999577
  outer loop
    vertex -2.412538016465674 -1.3782510943440263 4.0063933065952915
    vertex -2.81573466976332 1.7549755589536207 3.199999999999998
    vertex -2.824618016465673 -1.790331094344026 3.182233306595292
  endloop
endfacet
facet normal -0.894427190999916 -3.457389513735267e-17 0.4472135954999577
  outer loop
    vertex -2.81573466976332 1.7549755589536207 3.199999999999998
    vertex -2.412538016465674 -1.3782510943440263 4.0063933065952915
    vertex -2.412538016465674 1.3517789056559701 4.0063933065952915
  endloop
endfacet
facet normal 0.2718097914112788 0.9623509948521678 0.0
  outer loop
    vertex -1.0667603661381828 -2.480327059328411 2.399999999999998
    vertex -0.3884555070771309 -2.6719098635660306 2.199999999999998
    vertex -1.0667603661381828 -2.480327059328411 2.199999999999998
  endloop
endfacet
facet normal 0.2718097914112788 0.9623509948521678 0.0
  outer loop
    vertex -0.3884555070771309 -2.6719098635660306 2.199999999999998
    vertex -1.0667603661381828 -2.480327059328411 2.399999999999998
    vertex -0.3884555070771309 -2.6719098635660306 2.399999999999998
  endloop
endfacet
facet normal 0.5116228629034982 0.8592101292201043 0.0
  outer loop
    vertex -1.672367269151777 -2.1197140649318285 2.399999999999998
    vertex -1.0667603661381828 -2.480327059328411 2.199999999999998
    vertex -1.672367269151777 -2.1197140649318285 2.199999999999998
  endloop
endfacet
facet normal 0.5116228629034982 0.8592101292201043 0.0
  outer loop
    vertex -1.0667603661381828 -2.480327059328411 2.199999999999998
    vertex -1.672367269151777 -2.1197140649318285 2.399999999999998
    vertex -1.0667603661381828 -2.480327059328411 2.399999999999998
  endloop
endfacet
facet normal 0.9623509948521678 -0.27180979141127926 0.0
  outer loop
    vertex -2.4803270593284075 1.0667603661381873 2.199999999999998
    vertex -2.671909863566028 0.38845550707713483 2.399999999999998
    vertex -2.671909863566028 0.38845550707713483 2.199999999999998
  endloop
endfacet
facet normal 0.9623509948521678 -0.27180979141127926 0.0
  outer loop
    vertex -2.671909863566028 0.38845550707713483 2.399999999999998
    vertex -2.4803270593284075 1.0667603661381873 2.199999999999998
    vertex -2.4803270593284075 1.0667603661381873 2.399999999999998
  endloop
endfacet
facet normal 0.7933533402912352 -0.6087614290087209 0.0
  outer loop
    vertex 0.9959292143521077 -0.5749999999999995 -1.9739765377835285e-15
    vertex 0.8131727983645328 -0.8131727983645289 2.399999999999998
    vertex 0.8131727983645328 -0.8131727983645289 -1.9739765377835285e-15
  endloop
endfacet
facet normal 0.7933533402912352 -0.6087614290087209 0.0
  outer loop
    vertex 0.8131727983645328 -0.8131727983645289 2.399999999999998
    vertex 0.9959292143521077 -0.5749999999999995 -1.9739765377835285e-15
    vertex 0.9959292143521077 -0.5749999999999995 2.399999999999998
  endloop
endfacet
facet normal 0.6087614290087212 0.7933533402912347 0.0
  outer loop
    vertex 0.5750000000000035 0.9959292143521048 2.399999999999998
    vertex 0.8131727983645328 0.81317279836453 -1.9739765377835285e-15
    vertex 0.5750000000000035 0.9959292143521048 -1.9739765377835285e-15
  endloop
endfacet
facet normal 0.6087614290087212 0.7933533402912347 0.0
  outer loop
    vertex 0.8131727983645328 0.81317279836453 -1.9739765377835285e-15
    vertex 0.5750000000000035 0.9959292143521048 2.399999999999998
    vertex 0.8131727983645328 0.81317279836453 2.399999999999998
  endloop
endfacet
facet normal 0.923879532511287 -0.3826834323650898 0.0
  outer loop
    vertex 1.1108147002324313 -0.2976419018678984 -1.9739765377835285e-15
    vertex 0.9959292143521077 -0.5749999999999995 2.399999999999998
    vertex 0.9959292143521077 -0.5749999999999995 -1.9739765377835285e-15
  endloop
endfacet
facet normal 0.923879532511287 -0.3826834323650898 0.0
  outer loop
    vertex 0.9959292143521077 -0.5749999999999995 2.399999999999998
    vertex 1.1108147002324313 -0.2976419018678984 -1.9739765377835285e-15
    vertex 1.1108147002324313 -0.2976419018678984 2.399999999999998
  endloop
endfacet
facet normal -0.8592101292201045 0.511622862903498 0.0
  outer loop
    vertex 2.480327059328414 -1.066760366138185 2.399999999999998
    vertex 2.1197140649318333 -1.6723672691517784 2.199999999999998
    vertex 2.1197140649318333 -1.6723672691517784 2.399999999999998
  endloop
endfacet
facet normal -0.8592101292201045 0.511622862903498 0.0
  outer loop
    vertex 2.1197140649318333 -1.6723672691517784 2.199999999999998
    vertex 2.480327059328414 -1.066760366138185 2.399999999999998
    vertex 2.480327059328414 -1.066760366138185 2.199999999999998
  endloop
endfacet
facet normal -0.13052619222005182 -0.9914448613738104 -0.0
  outer loop
    vertex 3.383959779057477e-15 -1.149999999999999 2.399999999999998
    vertex -0.29764190186789613 -1.1108147002324278 -1.9739765377835285e-15
    vertex 3.383959779057477e-15 -1.149999999999999 -1.9739765377835285e-15
  endloop
endfacet
facet normal -0.13052619222005182 -0.9914448613738104 -0.0
  outer loop
    vertex -0.29764190186789613 -1.1108147002324278 -1.9739765377835285e-15
    vertex 3.383959779057477e-15 -1.149999999999999 2.399999999999998
    vertex -0.29764190186789613 -1.1108147002324278 2.399999999999998
  endloop
endfacet
facet normal -0.45408305085433603 6.959574746724838e-19 0.8909593609850106
  outer loop
    vertex -2.412538016465674 -1.3782510943440263 4.0063933065952915
    vertex -3.9999999999999964 2.93924088919031 3.197333306595282
    vertex -3.9999999999999964 -2.9657130778783443 3.197333306595282
  endloop
endfacet
facet normal -0.45408305085433603 6.959574746724838e-19 0.8909593609850106
  outer loop
    vertex -3.9999999999999964 2.93924088919031 3.197333306595282
    vertex -2.412538016465674 -1.3782510943440263 4.0063933065952915
    vertex -2.412538016465674 1.3517789056559701 4.0063933065952915
  endloop
endfacet
facet normal -0.608761429008721 -0.793353340291235 -0.0
  outer loop
    vertex -0.5749999999999973 -0.9959292143521037 2.399999999999998
    vertex -0.813172798364526 -0.8131727983645289 -1.9739765377835285e-15
    vertex -0.5749999999999973 -0.9959292143521037 -1.9739765377835285e-15
  endloop
endfacet
facet normal -0.608761429008721 -0.793353340291235 -0.0
  outer loop
    vertex -0.813172798364526 -0.8131727983645289 -1.9739765377835285e-15
    vertex -0.5749999999999973 -0.9959292143521037 2.399999999999998
    vertex -0.813172798364526 -0.8131727983645289 2.399999999999998
  endloop
endfacet
facet normal -1.0391325318713908e-17 -0.4540830508543369 0.8909593609850103
  outer loop
    vertex 1.908487217327123 -2.9604807410903082 3.199999999999998
    vertex -2.412538016465674 -1.3782510943440263 4.0063933065952915
    vertex -3.9999999999999964 -2.9657130778783443 3.197333306595282
  endloop
endfacet
facet normal -1.0391325318713908e-17 -0.4540830508543369 0.8909593609850103
  outer loop
    vertex -2.412538016465674 -1.3782510943440263 4.0063933065952915
    vertex 1.908487217327123 -2.9604807410903082 3.199999999999998
    vertex 0.317491983534322 -1.3782510943440263 4.0063933065952915
  endloop
endfacet
facet normal 0.13052619222005168 0.9914448613738104 0.0
  outer loop
    vertex 3.383959779057477e-15 1.1500000000000001 2.399999999999998
    vertex 0.29764190186790235 1.110814700232429 -1.9739765377835285e-15
    vertex 3.383959779057477e-15 1.1500000000000001 -1.9739765377835285e-15
  endloop
endfacet
facet normal 0.13052619222005168 0.9914448613738104 0.0
  outer loop
    vertex 0.29764190186790235 1.110814700232429 -1.9739765377835285e-15
    vertex 3.383959779057477e-15 1.1500000000000001 2.399999999999998
    vertex 0.29764190186790235 1.110814700232429 2.399999999999998
  endloop
endfacet
facet normal -0.7933533402912346 0.6087614290087213 0.0
  outer loop
    vertex -0.813172798364526 0.8131727983645306 2.399999999999998
    vertex -0.9959292143521009 0.5750000000000013 -1.9739765377835285e-15
    vertex -0.9959292143521009 0.5750000000000013 2.399999999999998
  endloop
endfacet
facet normal -0.7933533402912346 0.6087614290087213 0.0
  outer loop
    vertex -0.9959292143521009 0.5750000000000013 -1.9739765377835285e-15
    vertex -0.813172798364526 0.8131727983645306 2.399999999999998
    vertex -0.813172798364526 0.8131727983645306 -1.9739765377835285e-15
  endloop
endfacet
facet normal -0.9999092305452696 0.013473331821300494 0.0
  outer loop
    vertex 2.681406426141453 0.31632195283814796 2.399999999999998
    vertex 2.6719098635660345 -0.3884555070771331 2.199999999999998
    vertex 2.6719098635660345 -0.3884555070771331 2.399999999999998
  endloop
endfacet
facet normal -0.9999092305452696 0.013473331821300494 0.0
  outer loop
    vertex 2.6719098635660345 -0.3884555070771331 2.199999999999998
    vertex 2.681406426141453 0.31632195283814796 2.399999999999998
    vertex 2.681406426141453 0.31632195283814796 2.199999999999998
  endloop
endfacet
facet normal -0.13052619222005146 0.9914448613738106 0.0
  outer loop
    vertex -0.297641901867895 1.110814700232429 2.399999999999998
    vertex 3.383959779057477e-15 1.1500000000000001 -1.9739765377835285e-15
    vertex -0.297641901867895 1.110814700232429 -1.9739765377835285e-15
  endloop
endfacet
facet normal -0.13052619222005146 0.9914448613738106 0.0
  outer loop
    vertex 3.383959779057477e-15 1.1500000000000001 -1.9739765377835285e-15
    vertex -0.297641901867895 1.110814700232429 2.399999999999998
    vertex 3.383959779057477e-15 1.1500000000000001 2.399999999999998
  endloop
endfacet
facet normal 0.0 0.0 -1.0
  outer loop
    vertex -0.999542594414249 2.5081695720089643 2.399999999999998
    vertex -1.1499999999999968 5.639932965095795e-16 2.399999999999998
    vertex -1.6146460600032597 2.1640051064902655 2.399999999999998
  endloop
endfacet
facet normal 0.0 0.0 -1.0
  outer loop
    vertex -1.1499999999999968 5.639932965095795e-16 2.399999999999998
    vertex -0.999542594414249 2.5081695720089643 2.399999999999998
    vertex -1.1108147002324251 0.29764190186790007 2.399999999999998
  endloop
endfacet
facet normal 0.0 0.0 -1.0
  outer loop
    vertex -1.1108147002324251 0.29764190186790007 2.399999999999998
    vertex -0.999542594414249 2.5081695720089643 2.399999999999998
    vertex -0.9959292143521009 0.5750000000000013 2.399999999999998
  endloop
endfacet
facet normal 0.0 0.0 -1.0
  outer loop
    vertex -0.9959292143521009 0.5750000000000013 2.399999999999998
    vertex -0.999542594414249 2.5081695720089643 2.399999999999998
    vertex -0.316321952838144 2.6814064261414496 2.399999999999998
  endloop
endfacet
facet normal 0.0 0.0 -1.0
  outer loop
    vertex -0.9959292143521009 0.5750000000000013 2.399999999999998
    vertex -0.316321952838144 2.6814064261414496 2.399999999999998
    vertex -0.813172798364526 0.8131727983645306 2.399999999999998
  endloop
endfacet
facet normal 0.0 0.0 -1.0
  outer loop
    vertex -0.813172798364526 0.8131727983645306 2.399999999999998
    vertex -0.316321952838144 2.6814064261414496 2.399999999999998
    vertex -0.5749999999999962 0.9959292143521054 2.399999999999998
  endloop
endfacet
facet normal 0.0 0.0 -1.0
  outer loop
    vertex -0.5749999999999962 0.9959292143521054 2.399999999999998
    vertex -0.316321952838144 2.6814064261414496 2.399999999999998
    vertex -0.297641901867895 1.110814700232429 2.399999999999998
  endloop
endfacet
facet normal 0.0 0.0 -1.0
  outer loop
    vertex -0.297641901867895 1.110814700232429 2.399999999999998
    vertex -0.316321952838144 2.6814064261414496 2.399999999999998
    vertex 0.38845550707713766 2.6719098635660323 2.399999999999998
  endloop
endfacet
facet normal 0.0 0.0 -1.0
  outer loop
    vertex -0.297641901867895 1.110814700232429 2.399999999999998
    vertex 0.38845550707713766 2.6719098635660323 2.399999999999998
    vertex 3.383959779057477e-15 1.1500000000000001 2.399999999999998
  endloop
endfacet
facet normal 0.0 0.0 -1.0
  outer loop
    vertex 3.383959779057477e-15 1.1500000000000001 2.399999999999998
    vertex 0.38845550707713766 2.6719098635660323 2.399999999999998
    vertex 0.29764190186790235 1.110814700232429 2.399999999999998
  endloop
endfacet
facet normal 0.0 0.0 -1.0
  outer loop
    vertex 0.29764190186790235 1.110814700232429 2.399999999999998
    vertex 0.38845550707713766 2.6719098635660323 2.399999999999998
    vertex 0.5750000000000035 0.9959292143521048 2.399999999999998
  endloop
endfacet
facet normal 0.0 0.0 -1.0
  outer loop
    vertex 0.5750000000000035 0.9959292143521048 2.399999999999998
    vertex 0.38845550707713766 2.6719098635660323 2.399999999999998
    vertex 1.066760366138189 2.480327059328412 2.399999999999998
  endloop
endfacet
facet normal 0.0 0.0 -1.0
  outer loop
    vertex 0.5750000000000035 0.9959292143521048 2.399999999999998
    vertex 1.066760366138189 2.480327059328412 2.399999999999998
    vertex 0.8131727983645328 0.81317279836453 2.399999999999998
  endloop
endfacet
facet normal 0.0 0.0 -1.0
  outer loop
    vertex 0.8131727983645328 0.81317279836453 2.399999999999998
    vertex 1.066760366138189 2.480327059328412 2.399999999999998
    vertex 0.9959292143521077 0.5750000000000001 2.399999999999998
  endloop
endfacet
facet normal 0.0 0.0 -1.0
  outer loop
    vertex 0.9959292143521077 0.5750000000000001 2.399999999999998
    vertex 1.066760366138189 2.480327059328412 2.399999999999998
    vertex 1.1108147002324325 0.2976419018678995 2.399999999999998
  endloop
endfacet
facet normal 0.0 0.0 -1.0
  outer loop
    vertex 1.1108147002324325 0.2976419018678995 2.399999999999998
    vertex 1.066760366138189 2.480327059328412 2.399999999999998
    vertex 1.6723672691517826 2.11971406493183 2.399999999999998
  endloop
endfacet
facet normal 0.0 0.0 -1.0
  outer loop
    vertex 1.1108147002324325 0.2976419018678995 2.399999999999998
    vertex 1.6723672691517826 2.11971406493183 2.399999999999998
    vertex 1.1500000000000037 5.639932965095795e-16 2.399999999999998
  endloop
endfacet
facet normal 0.0 0.0 -1.0
  outer loop
    vertex 1.1500000000000037 5.639932965095795e-16 2.399999999999998
    vertex 1.6723672691517826 2.11971406493183 2.399999999999998
    vertex 1.614646060003267 -2.164005106490263 2.399999999999998
  endloop
endfacet
facet normal 0.0 0.0 -1.0
  outer loop
    vertex 1.614646060003267 -2.164005106490263 2.399999999999998
    vertex 1.6723672691517826 2.11971406493183 2.399999999999998
    vertex 2.1197140649318333 -1.6723672691517784 2.399999999999998
  endloop
endfacet
facet normal 0.0 0.0 -1.0
  outer loop
    vertex 2.1197140649318333 -1.6723672691517784 2.399999999999998
    vertex 1.6723672691517826 2.11971406493183 2.399999999999998
    vertex 2.1640051064902663 1.6146460600032635 2.399999999999998
  endloop
endfacet
facet normal 0.0 0.0 -1.0
  outer loop
    vertex 2.1197140649318333 -1.6723672691517784 2.399999999999998
    vertex 2.1640051064902663 1.6146460600032635 2.399999999999998
    vertex 2.480327059328414 -1.066760366138185 2.399999999999998
  endloop
endfacet
facet normal 0.0 0.0 -1.0
  outer loop
    vertex 2.480327059328414 -1.066760366138185 2.399999999999998
    vertex 2.1640051064902663 1.6146460600032635 2.399999999999998
    vertex 2.5081695720089665 0.999542594414253 2.399999999999998
  endloop
endfacet
facet normal 0.0 0.0 -1.0
  outer loop
    vertex 2.480327059328414 -1.066760366138185 2.399999999999998
    vertex 2.5081695720089665 0.999542594414253 2.399999999999998
    vertex 2.6719098635660345 -0.3884555070771331 2.399999999999998
  endloop
endfacet
facet normal 0.0 0.0 -1.0
  outer loop
    vertex 2.6719098635660345 -0.3884555070771331 2.399999999999998
    vertex 2.5081695720089665 0.999542594414253 2.399999999999998
    vertex 2.681406426141453 0.31632195283814796 2.399999999999998
  endloop
endfacet
facet normal 0.0 0.0 -1.0
  outer loop
    vertex -2.671909863566028 0.38845550707713483 2.399999999999998
    vertex -2.5081695720089603 -0.9995425944142519 2.399999999999998
    vertex -2.6814064261414465 -0.3163219528381451 2.399999999999998
  endloop
endfacet
facet normal 0.0 0.0 -1.0
  outer loop
    vertex -2.5081695720089603 -0.9995425944142519 2.399999999999998
    vertex -2.671909863566028 0.38845550707713483 2.399999999999998
    vertex -2.4803270593284075 1.0667603661381873 2.399999999999998
  endloop
endfacet
facet normal 0.0 0.0 -1.0
  outer loop
    vertex -2.5081695720089603 -0.9995425944142519 2.399999999999998
    vertex -2.4803270593284075 1.0667603661381873 2.399999999999998
    vertex -2.164005106490261 -1.6146460600032624 2.399999999999998
  endloop
endfacet
facet normal 0.0 0.0 -1.0
  outer loop
    vertex -2.164005106490261 -1.6146460600032624 2.399999999999998
    vertex -2.4803270593284075 1.0667603661381873 2.399999999999998
    vertex -2.119714064931826 1.6723672691517804 2.399999999999998
  endloop
endfacet
facet normal 0.0 0.0 -1.0
  outer loop
    vertex -2.164005106490261 -1.6146460600032624 2.399999999999998
    vertex -2.119714064931826 1.6723672691517804 2.399999999999998
    vertex -1.672367269151777 -2.1197140649318285 2.399999999999998
  endloop
endfacet
facet normal 0.0 0.0 -1.0
  outer loop
    vertex -1.672367269151777 -2.1197140649318285 2.399999999999998
    vertex -2.119714064931826 1.6723672691517804 2.399999999999998
    vertex -1.6146460600032597 2.1640051064902655 2.399999999999998
  endloop
endfacet
facet normal 0.0 0.0 -1.0
  outer loop
    vertex -1.672367269151777 -2.1197140649318285 2.399999999999998
    vertex -1.6146460600032597 2.1640051064902655 2.399999999999998
    vertex -1.0667603661381828 -2.480327059328411 2.399999999999998
  endloop
endfacet
facet normal 0.0 0.0 -1.0
  outer loop
    vertex -1.0667603661381828 -2.480327059328411 2.399999999999998
    vertex -1.6146460600032597 2.1640051064902655 2.399999999999998
    vertex -1.1499999999999968 5.639932965095795e-16 2.399999999999998
  endloop
endfacet
facet normal 0.0 0.0 -1.0
  outer loop
    vertex -1.0667603661381828 -2.480327059328411 2.399999999999998
    vertex -1.1499999999999968 5.639932965095795e-16 2.399999999999998
    vertex -1.1108147002324251 -0.2976419018678978 2.399999999999998
  endloop
endfacet
facet normal 0.0 0.0 -1.0
  outer loop
    vertex -1.0667603661381828 -2.480327059328411 2.399999999999998
    vertex -1.1108147002324251 -0.2976419018678978 2.399999999999998
    vertex -0.9959292143521015 -0.5749999999999984 2.399999999999998
  endloop
endfacet
facet normal 0.0 0.0 -1.0
  outer loop
    vertex -1.0667603661381828 -2.480327059328411 2.399999999999998
    vertex -0.9959292143521015 -0.5749999999999984 2.399999999999998
    vertex -0.3884555070771309 -2.6719098635660306 2.399999999999998
  endloop
endfacet
facet normal 0.0 0.0 -1.0
  outer loop
    vertex -0.3884555070771309 -2.6719098635660306 2.399999999999998
    vertex -0.9959292143521015 -0.5749999999999984 2.399999999999998
    vertex -0.813172798364526 -0.8131727983645289 2.399999999999998
  endloop
endfacet
facet normal 0.0 0.0 -1.0
  outer loop
    vertex -0.3884555070771309 -2.6719098635660306 2.399999999999998
    vertex -0.813172798364526 -0.8131727983645289 2.399999999999998
    vertex -0.5749999999999973 -0.9959292143521037 2.399999999999998
  endloop
endfacet
facet normal 0.0 0.0 -1.0
  outer loop
    vertex -0.3884555070771309 -2.6719098635660306 2.399999999999998
    vertex -0.5749999999999973 -0.9959292143521037 2.399999999999998
    vertex -0.29764190186789613 -1.1108147002324278 2.399999999999998
  endloop
endfacet
facet normal 0.0 0.0 -1.0
  outer loop
    vertex -0.3884555070771309 -2.6719098635660306 2.399999999999998
    vertex -0.29764190186789613 -1.1108147002324278 2.399999999999998
    vertex 0.31632195283814907 -2.681406426141449 2.399999999999998
  endloop
endfacet
facet normal 0.0 0.0 -1.0
  outer loop
    vertex 0.31632195283814907 -2.681406426141449 2.399999999999998
    vertex -0.29764190186789613 -1.1108147002324278 2.399999999999998
    vertex 3.383959779057477e-15 -1.149999999999999 2.399999999999998
  endloop
endfacet
facet normal 0.0 0.0 -1.0
  outer loop
    vertex 0.31632195283814907 -2.681406426141449 2.399999999999998
    vertex 3.383959779057477e-15 -1.149999999999999 2.399999999999998
    vertex 0.29764190186790235 -1.1108147002324278 2.399999999999998
  endloop
endfacet
facet normal 0.0 0.0 -1.0
  outer loop
    vertex 0.31632195283814907 -2.681406426141449 2.399999999999998
    vertex 0.29764190186790235 -1.1108147002324278 2.399999999999998
    vertex 0.5750000000000035 -0.9959292143521037 2.399999999999998
  endloop
endfacet
facet normal 0.0 0.0 -1.0
  outer loop
    vertex 0.31632195283814907 -2.681406426141449 2.399999999999998
    vertex 0.5750000000000035 -0.9959292143521037 2.399999999999998
    vertex 0.9995425944142563 -2.508169572008963 2.399999999999998
  endloop
endfacet
facet normal 0.0 0.0 -1.0
  outer loop
    vertex 0.9995425944142563 -2.508169572008963 2.399999999999998
    vertex 0.5750000000000035 -0.9959292143521037 2.399999999999998
    vertex 0.8131727983645328 -0.8131727983645289 2.399999999999998
  endloop
endfacet
facet normal 0.0 0.0 -1.0
  outer loop
    vertex 0.9995425944142563 -2.508169572008963 2.399999999999998
    vertex 0.8131727983645328 -0.8131727983645289 2.399999999999998
    vertex 0.9959292143521077 -0.5749999999999995 2.399999999999998
  endloop
endfacet
facet normal 0.0 0.0 -1.0
  outer loop
    vertex 0.9995425944142563 -2.508169572008963 2.399999999999998
    vertex 0.9959292143521077 -0.5749999999999995 2.399999999999998
    vertex 1.1108147002324313 -0.2976419018678984 2.399999999999998
  endloop
endfacet
facet normal 0.0 0.0 -1.0
  outer loop
    vertex 0.9995425944142563 -2.508169572008963 2.399999999999998
    vertex 1.1108147002324313 -0.2976419018678984 2.399999999999998
    vertex 1.614646060003267 -2.164005106490263 2.399999999999998
  endloop
endfacet
facet normal 0.0 0.0 -1.0
  outer loop
    vertex 1.614646060003267 -2.164005106490263 2.399999999999998
    vertex 1.1108147002324313 -0.2976419018678984 2.399999999999998
    vertex 1.1500000000000037 5.639932965095795e-16 2.399999999999998
  endloop
endfacet
facet normal -0.9914448613738106 -0.13052619222005146 -0.0
  outer loop
    vertex -1.1499999999999968 5.639932965095795e-16 2.399999999999998
    vertex -1.1108147002324251 -0.2976419018678978 -1.9739765377835285e-15
    vertex -1.1108147002324251 -0.2976419018678978 2.399999999999998
  endloop
endfacet
facet normal -0.9914448613738106 -0.13052619222005146 -0.0
  outer loop
    vertex -1.1108147002324251 -0.2976419018678978 -1.9739765377835285e-15
    vertex -1.1499999999999968 5.639932965095795e-16 2.399999999999998
    vertex -1.1499999999999968 5.639932965095795e-16 -1.9739765377835285e-15
  endloop
endfacet
facet normal -0.7933533402912355 -0.6087614290087202 -0.0
  outer loop
    vertex -0.9959292143521015 -0.5749999999999984 2.399999999999998
    vertex -0.813172798364526 -0.8131727983645289 -1.9739765377835285e-15
    vertex -0.813172798364526 -0.8131727983645289 2.399999999999998
  endloop
endfacet
facet normal -0.7933533402912355 -0.6087614290087202 -0.0
  outer loop
    vertex -0.813172798364526 -0.8131727983645289 -1.9739765377835285e-15
    vertex -0.9959292143521015 -0.5749999999999984 2.399999999999998
    vertex -0.9959292143521015 -0.5749999999999984 -1.9739765377835285e-15
  endloop
endfacet
facet normal 6.368875420038664e-18 -0.8944271909999159 0.4472135954999583
  outer loop
    vertex 0.720688636831967 -1.7814477476416728 3.199999999999998
    vertex -2.412538016465674 -1.3782510943440263 4.0063933065952915
    vertex -2.824618016465673 -1.790331094344026 3.182233306595292
  endloop
endfacet
facet normal 6.368875420038664e-18 -0.8944271909999159 0.4472135954999583
  outer loop
    vertex -2.412538016465674 -1.3782510943440263 4.0063933065952915
    vertex 0.720688636831967 -1.7814477476416728 3.199999999999998
    vertex 0.317491983534322 -1.3782510943440263 4.0063933065952915
  endloop
endfacet
facet normal -0.9238795325112872 -0.38268343236508917 -0.0
  outer loop
    vertex -1.1108147002324251 -0.2976419018678978 2.399999999999998
    vertex -0.9959292143521015 -0.5749999999999984 -1.9739765377835285e-15
    vertex -0.9959292143521015 -0.5749999999999984 2.399999999999998
  endloop
endfacet
facet normal -0.9238795325112872 -0.38268343236508917 -0.0
  outer loop
    vertex -0.9959292143521015 -0.5749999999999984 -1.9739765377835285e-15
    vertex -1.1108147002324251 -0.2976419018678978 2.399999999999998
    vertex -1.1108147002324251 -0.2976419018678978 -1.9739765377835285e-15
  endloop
endfacet
facet normal -0.2718097914112792 -0.9623509948521678 -0.0
  outer loop
    vertex 1.066760366138189 2.480327059328412 2.399999999999998
    vertex 0.38845550707713766 2.6719098635660323 2.199999999999998
    vertex 1.066760366138189 2.480327059328412 2.199999999999998
  endloop
endfacet
facet normal -0.2718097914112792 -0.9623509948521678 -0.0
  outer loop
    vertex 0.38845550707713766 2.6719098635660323 2.199999999999998
    vertex 1.066760366138189 2.480327059328412 2.399999999999998
    vertex 0.38845550707713766 2.6719098635660323 2.399999999999998
  endloop
endfacet
facet normal 1.2687602485492116e-17 0.4540830508543321 0.8909593609850126
  outer loop
    vertex -2.412538016465674 1.3517789056559701 4.0063933065952915
    vertex 1.8950032438497502 2.93924088919031 3.197333306595282
    vertex -3.9999999999999964 2.93924088919031 3.197333306595282
  endloop
endfacet
facet normal 1.2687602485492116e-17 0.4540830508543321 0.8909593609850126
  outer loop
    vertex 1.8950032438497502 2.93924088919031 3.197333306595282
    vertex -2.412538016465674 1.3517789056559701 4.0063933065952915
    vertex 0.317491983534322 1.3517789056559701 4.0063933065952915
  endloop
endfacet
facet normal 1.2687602485492116e-17 0.4540830508543321 0.8909593609850126
  outer loop
    vertex 1.8950032438497502 2.93924088919031 3.197333306595282
    vertex 0.317491983534322 1.3517789056559701 4.0063933065952915
    vertex 1.889803705034645 2.9340085524022723 3.199999999999998
  endloop
endfacet
facet normal 0.8726834610414046 0.4882863676417717 0.0
  outer loop
    vertex -2.5081695720089603 -0.9995425944142519 2.199999999999998
    vertex -2.164005106490261 -1.6146460600032624 2.399999999999998
    vertex -2.164005106490261 -1.6146460600032624 2.199999999999998
  endloop
endfacet
facet normal 0.8726834610414046 0.4882863676417717 0.0
  outer loop
    vertex -2.164005106490261 -1.6146460600032624 2.399999999999998
    vertex -2.5081695720089603 -0.9995425944142519 2.199999999999998
    vertex -2.5081695720089603 -0.9995425944142519 2.399999999999998
  endloop
endfacet
facet normal 0.13052619222005132 -0.9914448613738106 0.0
  outer loop
    vertex 0.29764190186790235 -1.1108147002324278 2.399999999999998
    vertex 3.383959779057477e-15 -1.149999999999999 -1.9739765377835285e-15
    vertex 0.29764190186790235 -1.1108147002324278 -1.9739765377835285e-15
  endloop
endfacet
facet normal 0.13052619222005132 -0.9914448613738106 0.0
  outer loop
    vertex 3.383959779057477e-15 -1.149999999999999 -1.9739765377835285e-15
    vertex 0.29764190186790235 -1.1108147002324278 2.399999999999998
    vertex 3.383959779057477e-15 -1.149999999999999 2.399999999999998
  endloop
endfacet
facet normal -0.9914448613738105 0.13052619222005196 0.0
  outer loop
    vertex -1.1108147002324251 0.29764190186790007 2.399999999999998
    vertex -1.1499999999999968 5.639932965095795e-16 -1.9739765377835285e-15
    vertex -1.1499999999999968 5.639932965095795e-16 2.399999999999998
  endloop
endfacet
facet normal -0.9914448613738105 0.13052619222005196 0.0
  outer loop
    vertex -1.1499999999999968 5.639932965095795e-16 -1.9739765377835285e-15
    vertex -1.1108147002324251 0.29764190186790007 2.399999999999998
    vertex -1.1108147002324251 0.29764190186790007 -1.9739765377835285e-15
  endloop
endfacet
facet normal -1.0 0.0 0.0
  outer loop
    vertex -3.9999999999999964 3.9999999999999996 3.199999999999998
    vertex -3.9999999999999964 -4.000000000000004 2.199999999999998
    vertex -3.9999999999999964 -4.000000000000004 3.199999999999998
  endloop
endfacet
facet normal -1.0 0.0 0.0
  outer loop
    vertex -3.9999999999999964 -4.000000000000004 2.199999999999998
    vertex -3.9999999999999964 3.9999999999999996 3.199999999999998
    vertex -3.9999999999999964 3.9999999999999996 2.199999999999998
  endloop
endfacet
facet normal -0.7044807564080007 -0.7097182581803906 0.002618750886196723
  outer loop
    vertex 0.317491983534322 -1.3782510943440263 4.0063933065952915
    vertex 0.720688636831967 -1.7814477476416728 3.199999999999998
    vertex 1.908487217327123 -2.9604807410903082 3.199999999999998
  endloop
endfacet
facet normal -0.3826834323650895 0.9238795325112871 0.0
  outer loop
    vertex -0.5749999999999962 0.9959292143521054 2.399999999999998
    vertex -0.297641901867895 1.110814700232429 -1.9739765377835285e-15
    vertex -0.5749999999999962 0.9959292143521054 -1.9739765377835285e-15
  endloop
endfacet
facet normal -0.3826834323650895 0.9238795325112871 0.0
  outer loop
    vertex -0.297641901867895 1.110814700232429 -1.9739765377835285e-15
    vertex -0.5749999999999962 0.9959292143521054 2.399999999999998
    vertex -0.297641901867895 1.110814700232429 2.399999999999998
  endloop
endfacet
facet normal 0.9693253046048447 0.2457813130665661 0.0
  outer loop
    vertex -2.6814064261414465 -0.3163219528381451 2.199999999999998
    vertex -2.5081695720089603 -0.9995425944142519 2.399999999999998
    vertex -2.5081695720089603 -0.9995425944142519 2.199999999999998
  endloop
endfacet
facet normal 0.9693253046048447 0.2457813130665661 0.0
  outer loop
    vertex -2.5081695720089603 -0.9995425944142519 2.399999999999998
    vertex -2.6814064261414465 -0.3163219528381451 2.199999999999998
    vertex -2.6814064261414465 -0.3163219528381451 2.399999999999998
  endloop
endfacet
facet normal -0.6975155131935653 0.716569681785601 0.0
  outer loop
    vertex 1.614646060003267 -2.164005106490263 2.399999999999998
    vertex 2.1197140649318333 -1.6723672691517784 2.199999999999998
    vertex 1.614646060003267 -2.164005106490263 2.199999999999998
  endloop
endfacet
facet normal -0.6975155131935653 0.716569681785601 0.0
  outer loop
    vertex 2.1197140649318333 -1.6723672691517784 2.199999999999998
    vertex 1.614646060003267 -2.164005106490263 2.399999999999998
    vertex 2.1197140649318333 -1.6723672691517784 2.399999999999998
  endloop
endfacet
facet normal -0.0 -0.0 1.0
  outer loop
    vertex 4.000000000000005 -4.000000000000004 3.199999999999998
    vertex -3.9999999999999964 3.9999999999999996 3.199999999999998
    vertex -3.9999999999999964 -4.000000000000004 3.199999999999998
  endloop
endfacet
facet normal -0.0 -0.0 1.0
  outer loop
    vertex -3.9999999999999964 3.9999999999999996 3.199999999999998
    vertex 4.000000000000005 -4.000000000000004 3.199999999999998
    vertex 4.000000000000005 3.9999999999999996 3.199999999999998
  endloop
endfacet
endsolid car_top2
