solid car_button
facet normal -1.0 -0.0 -0.0
  outer loop
    vertex 4.11148703449809 2.325598894772101 5.599999999999999
    vertex 4.11148703449809 -2.674401105227915 -0.49999999999999994
    vertex 4.11148703449809 -2.674401105227915 5.599999999999999
  endloop
endfacet
facet normal -1.0 -0.0 -0.0
  outer loop
    vertex 4.11148703449809 -2.674401105227915 -0.49999999999999994
    vertex 4.11148703449809 2.325598894772101 5.599999999999999
    vertex 4.11148703449809 2.325598894772101 -0.49999999999999994
  endloop
endfacet
facet normal 1.0 -0.0 -0.0
  outer loop
    vertex 5.61148703449809 3.8255988947721007 0.0
    vertex 5.61148703449809 -4.174401105227914 7.999999999999999
    vertex 5.61148703449809 -4.174401105227914 0.0
  endloop
endfacet
facet normal 1.0 -0.0 -0.0
  outer loop
    vertex 5.61148703449809 -4.174401105227914 7.999999999999999
    vertex 5.61148703449809 3.8255988947721007 0.0
    vertex 5.61148703449809 3.8255988947721007 7.999999999999999
  endloop
endfacet
facet normal 1.0 0.0 0.0
  outer loop
    vertex 7.11148703449809 5.3255988947721 -0.49999999999999994
    vertex 7.11148703449809 -5.674401105227914 0.0
    vertex 7.11148703449809 -5.674401105227914 -0.49999999999999994
  endloop
endfacet
facet normal 1.0 0.0 0.0
  outer loop
    vertex 7.11148703449809 -5.674401105227914 0.0
    vertex 7.11148703449809 5.3255988947721 -0.49999999999999994
    vertex 7.11148703449809 5.3255988947721 0.0
  endloop
endfacet
facet normal -1.0 0.0 0.0
  outer loop
    vertex -6.888512965501921 5.3255988947721 0.0
    vertex -6.888512965501921 -5.674401105227914 -0.49999999999999994
    vertex -6.888512965501921 -5.674401105227914 0.0
  endloop
endfacet
facet normal -1.0 0.0 0.0
  outer loop
    vertex -6.888512965501921 -5.674401105227914 -0.49999999999999994
    vertex -6.888512965501921 5.3255988947721 0.0
    vertex -6.888512965501921 5.3255988947721 -0.49999999999999994
  endloop
endfacet
facet normal 1.0 -0.0 -0.0
  outer loop
    vertex -3.8885129655019215 2.325598894772101 -0.49999999999999994
    vertex -3.8885129655019215 -2.674401105227915 5.599999999999999
    vertex -3.8885129655019215 -2.674401105227915 -0.49999999999999994
  endloop
endfacet
facet normal 1.0 -0.0 -0.0
  outer loop
    vertex -3.8885129655019215 -2.674401105227915 5.599999999999999
    vertex -3.8885129655019215 2.325598894772101 -0.49999999999999994
    vertex -3.8885129655019215 2.325598894772101 5.599999999999999
  endloop
endfacet
facet normal -1.0 0.0 0.0
  outer loop
    vertex -5.388512965501921 3.8255988947721007 7.999999999999999
    vertex -5.388512965501921 -4.174401105227914 0.0
    vertex -5.388512965501921 -4.174401105227914 7.999999999999999
  endloop
endfacet
facet normal -1.0 0.0 0.0
  outer loop
    vertex -5.388512965501921 -4.174401105227914 0.0
    vertex -5.388512965501921 3.8255988947721007 7.999999999999999
    vertex -5.388512965501921 3.8255988947721007 0.0
  endloop
endfacet
facet normal 0.0 -1.0 0.0
  outer loop
    vertex 7.11148703449809 -5.674401105227914 0.0
    vertex 2.0148063111195023 -5.674401105227914 -0.49999999999999994
    vertex 7.11148703449809 -5.674401105227914 -0.49999999999999994
  endloop
endfacet
facet normal 0.0 -1.0 0.0
  outer loop
    vertex 2.0148063111195023 -5.674401105227914 -0.49999999999999994
    vertex 7.11148703449809 -5.674401105227914 0.0
    vertex 2.0148063111195023 -5.674401105227914 0.0
  endloop
endfacet
facet normal -0.0 1.0 -0.0
  outer loop
    vertex -6.888512965501921 5.3255988947721 0.0
    vertex -1.9851936888804997 5.3255988947721 -0.49999999999999994
    vertex -6.888512965501921 5.3255988947721 -0.49999999999999994
  endloop
endfacet
facet normal -0.0 1.0 -0.0
  outer loop
    vertex -1.9851936888804997 5.3255988947721 -0.49999999999999994
    vertex -6.888512965501921 5.3255988947721 0.0
    vertex -1.9851936888804997 5.3255988947721 0.0
  endloop
endfacet
facet normal 0.0 0.0 1.0
  outer loop
    vertex -1.5026393500077868 -2.431219040054156 6.6
    vertex -1.3600466328691228 -0.41647425621432266 6.6
    vertex -1.4026393500077874 -0.0929504498361717 6.6
  endloop
endfacet
facet normal 0.0 0.0 1.0
  outer loop
    vertex -1.3600466328691228 -0.41647425621432266 6.6
    vertex -1.5026393500077868 -2.431219040054156 6.6
    vertex -0.851450771784593 -2.700950180816656 6.6
  endloop
endfacet
facet normal 0.0 0.0 1.0
  outer loop
    vertex -1.3600466328691228 -0.41647425621432266 6.6
    vertex -0.851450771784593 -2.700950180816656 6.6
    vertex -1.2351711047383356 -0.7179504498361716 6.6
  endloop
endfacet
facet normal 0.0 0.0 1.0
  outer loop
    vertex -1.2351711047383356 -0.7179504498361716 6.6
    vertex -0.851450771784593 -2.700950180816656 6.6
    vertex -1.0365228264909718 -0.9768339263193561 6.6
  endloop
endfacet
facet normal 0.0 0.0 1.0
  outer loop
    vertex -1.0365228264909718 -0.9768339263193561 6.6
    vertex -0.851450771784593 -2.700950180816656 6.6
    vertex -0.7776393500077871 -1.17548220456672 6.6
  endloop
endfacet
facet normal 0.0 0.0 1.0
  outer loop
    vertex -0.7776393500077871 -1.17548220456672 6.6
    vertex -0.851450771784593 -2.700950180816656 6.6
    vertex -0.15263935000778703 -2.7929504498361717 6.6
  endloop
endfacet
facet normal 0.0 0.0 1.0
  outer loop
    vertex -0.7776393500077871 -1.17548220456672 6.6
    vertex -0.15263935000778703 -2.7929504498361717 6.6
    vertex -0.47616315638593804 -1.300357732697507 6.6
  endloop
endfacet
facet normal 0.0 0.0 1.0
  outer loop
    vertex -0.47616315638593804 -1.300357732697507 6.6
    vertex -0.15263935000778703 -2.7929504498361717 6.6
    vertex -0.15263935000778703 -1.3429504498361717 6.6
  endloop
endfacet
facet normal 0.0 0.0 1.0
  outer loop
    vertex -0.15263935000778703 -1.3429504498361717 6.6
    vertex -0.15263935000778703 -2.7929504498361717 6.6
    vertex 0.5461720717690213 -2.700950180816655 6.6
  endloop
endfacet
facet normal 0.0 0.0 1.0
  outer loop
    vertex -0.15263935000778703 -1.3429504498361717 6.6
    vertex 0.5461720717690213 -2.700950180816655 6.6
    vertex 0.17088445637036603 -1.3003577326975064 6.6
  endloop
endfacet
facet normal 0.0 0.0 1.0
  outer loop
    vertex 0.17088445637036603 -1.3003577326975064 6.6
    vertex 0.5461720717690213 -2.700950180816655 6.6
    vertex 0.47236064999221467 -1.175482204566719 6.6
  endloop
endfacet
facet normal 0.0 0.0 1.0
  outer loop
    vertex 0.47236064999221467 -1.175482204566719 6.6
    vertex 0.5461720717690213 -2.700950180816655 6.6
    vertex 0.7312441264753986 -0.9768339263193551 6.6
  endloop
endfacet
facet normal 0.0 0.0 1.0
  outer loop
    vertex 0.7312441264753986 -0.9768339263193551 6.6
    vertex 0.5461720717690213 -2.700950180816655 6.6
    vertex 1.1973606499922143 -2.431219040054155 6.6
  endloop
endfacet
facet normal 0.0 0.0 1.0
  outer loop
    vertex 0.7312441264753986 -0.9768339263193551 6.6
    vertex 1.1973606499922143 -2.431219040054155 6.6
    vertex 0.929892404722762 -0.7179504498361706 6.6
  endloop
endfacet
facet normal 0.0 0.0 1.0
  outer loop
    vertex 0.929892404722762 -0.7179504498361706 6.6
    vertex 1.1973606499922143 -2.431219040054155 6.6
    vertex 1.0547679328535489 -0.4164742562143218 6.6
  endloop
endfacet
facet normal 0.0 0.0 1.0
  outer loop
    vertex 1.0547679328535489 -0.4164742562143218 6.6
    vertex 1.1973606499922143 -2.431219040054155 6.6
    vertex 1.0973606499922133 -0.09295044983617112 6.6
  endloop
endfacet
facet normal 0.0 0.0 1.0
  outer loop
    vertex 1.0973606499922133 -0.09295044983617112 6.6
    vertex 1.1973606499922143 -2.431219040054155 6.6
    vertex 1.1973606499922123 2.245318140381814 6.6
  endloop
endfacet
facet normal 0.0 0.0 1.0
  outer loop
    vertex 1.1973606499922123 2.245318140381814 6.6
    vertex 1.1973606499922143 -2.431219040054155 6.6
    vertex 1.7565489591958905 1.8162378593675081 6.6
  endloop
endfacet
facet normal 0.0 0.0 1.0
  outer loop
    vertex 1.7565489591958905 1.8162378593675081 6.6
    vertex 1.1973606499922143 -2.431219040054155 6.6
    vertex 1.756548959195892 -2.0021387590398496 6.6
  endloop
endfacet
facet normal 0.0 0.0 1.0
  outer loop
    vertex 1.7565489591958905 1.8162378593675081 6.6
    vertex 1.756548959195892 -2.0021387590398496 6.6
    vertex 2.185629240210197 1.25704955016383 6.6
  endloop
endfacet
facet normal 0.0 0.0 1.0
  outer loop
    vertex 2.185629240210197 1.25704955016383 6.6
    vertex 1.756548959195892 -2.0021387590398496 6.6
    vertex 2.1856292402101984 -1.4429504498361698 6.6
  endloop
endfacet
facet normal 0.0 0.0 1.0
  outer loop
    vertex 2.185629240210197 1.25704955016383 6.6
    vertex 2.1856292402101984 -1.4429504498361698 6.6
    vertex 2.455360380972697 0.6058609719406368 6.6
  endloop
endfacet
facet normal 0.0 0.0 1.0
  outer loop
    vertex 2.455360380972697 0.6058609719406368 6.6
    vertex 2.1856292402101984 -1.4429504498361698 6.6
    vertex 2.455360380972698 -0.7917618716129763 6.6
  endloop
endfacet
facet normal 0.0 0.0 1.0
  outer loop
    vertex 2.455360380972697 0.6058609719406368 6.6
    vertex 2.455360380972698 -0.7917618716129763 6.6
    vertex 2.5473606499922132 -0.09295044983617086 6.6
  endloop
endfacet
facet normal 0.0 0.0 1.0
  outer loop
    vertex -2.7606390809882715 -0.7917618716129781 6.6
    vertex -2.7606390809882715 0.6058609719406344 6.6
    vertex -2.852639350007787 -0.09295044983617151 6.6
  endloop
endfacet
facet normal 0.0 0.0 1.0
  outer loop
    vertex -2.7606390809882715 0.6058609719406344 6.6
    vertex -2.7606390809882715 -0.7917618716129781 6.6
    vertex -2.4909079402257714 -1.4429504498361718 6.6
  endloop
endfacet
facet normal 0.0 0.0 1.0
  outer loop
    vertex -2.7606390809882715 0.6058609719406344 6.6
    vertex -2.4909079402257714 -1.4429504498361718 6.6
    vertex -2.490907940225772 1.2570495501638281 6.6
  endloop
endfacet
facet normal 0.0 0.0 1.0
  outer loop
    vertex -2.490907940225772 1.2570495501638281 6.6
    vertex -2.4909079402257714 -1.4429504498361718 6.6
    vertex -2.061827659211466 1.816237859367507 6.6
  endloop
endfacet
facet normal 0.0 0.0 1.0
  outer loop
    vertex -2.061827659211466 1.816237859367507 6.6
    vertex -2.4909079402257714 -1.4429504498361718 6.6
    vertex -2.061827659211466 -2.00213875903985 6.6
  endloop
endfacet
facet normal 0.0 0.0 1.0
  outer loop
    vertex -2.061827659211466 1.816237859367507 6.6
    vertex -2.061827659211466 -2.00213875903985 6.6
    vertex -1.5026393500077868 -2.431219040054156 6.6
  endloop
endfacet
facet normal 0.0 0.0 1.0
  outer loop
    vertex -2.061827659211466 1.816237859367507 6.6
    vertex -1.5026393500077868 -2.431219040054156 6.6
    vertex -1.502639350007788 2.245318140381813 6.6
  endloop
endfacet
facet normal 0.0 0.0 1.0
  outer loop
    vertex -1.502639350007788 2.245318140381813 6.6
    vertex -1.5026393500077868 -2.431219040054156 6.6
    vertex -1.4026393500077874 -0.0929504498361717 6.6
  endloop
endfacet
facet normal 0.0 0.0 1.0
  outer loop
    vertex -1.502639350007788 2.245318140381813 6.6
    vertex -1.4026393500077874 -0.0929504498361717 6.6
    vertex -1.3600466328691228 0.23057335654197925 6.6
  endloop
endfacet
facet normal 0.0 0.0 1.0
  outer loop
    vertex -1.502639350007788 2.245318140381813 6.6
    vertex -1.3600466328691228 0.23057335654197925 6.6
    vertex -0.8514507717845939 2.515049281144313 6.6
  endloop
endfacet
facet normal 0.0 0.0 1.0
  outer loop
    vertex -0.8514507717845939 2.515049281144313 6.6
    vertex -1.3600466328691228 0.23057335654197925 6.6
    vertex -1.2351711047383356 0.5320495501638285 6.6
  endloop
endfacet
facet normal 0.0 0.0 1.0
  outer loop
    vertex -0.8514507717845939 2.515049281144313 6.6
    vertex -1.2351711047383356 0.5320495501638285 6.6
    vertex -1.0365228264909718 0.7909330266470131 6.6
  endloop
endfacet
facet normal 0.0 0.0 1.0
  outer loop
    vertex -0.8514507717845939 2.515049281144313 6.6
    vertex -1.0365228264909718 0.7909330266470131 6.6
    vertex -0.7776393500077871 0.9895813048943772 6.6
  endloop
endfacet
facet normal 0.0 0.0 1.0
  outer loop
    vertex -0.8514507717845939 2.515049281144313 6.6
    vertex -0.7776393500077871 0.9895813048943772 6.6
    vertex -0.15263935000778736 2.607049550163829 6.6
  endloop
endfacet
facet normal 0.0 0.0 1.0
  outer loop
    vertex -0.15263935000778736 2.607049550163829 6.6
    vertex -0.7776393500077871 0.9895813048943772 6.6
    vertex -0.4761631563859378 1.1144568330251645 6.6
  endloop
endfacet
facet normal 0.0 0.0 1.0
  outer loop
    vertex -0.15263935000778736 2.607049550163829 6.6
    vertex -0.4761631563859378 1.1144568330251645 6.6
    vertex -0.1526393500077866 1.157049550163829 6.6
  endloop
endfacet
facet normal 0.0 0.0 1.0
  outer loop
    vertex -0.15263935000778736 2.607049550163829 6.6
    vertex -0.1526393500077866 1.157049550163829 6.6
    vertex 0.546172071769018 2.515049281144314 6.6
  endloop
endfacet
facet normal 0.0 0.0 1.0
  outer loop
    vertex 0.546172071769018 2.515049281144314 6.6
    vertex -0.1526393500077866 1.157049550163829 6.6
    vertex 0.17088445637036456 1.1144568330251643 6.6
  endloop
endfacet
facet normal 0.0 0.0 1.0
  outer loop
    vertex 0.546172071769018 2.515049281144314 6.6
    vertex 0.17088445637036456 1.1144568330251643 6.6
    vertex 0.47236064999221383 0.9895813048943768 6.6
  endloop
endfacet
facet normal 0.0 0.0 1.0
  outer loop
    vertex 0.546172071769018 2.515049281144314 6.6
    vertex 0.47236064999221383 0.9895813048943768 6.6
    vertex 0.7312441264753983 0.7909330266470126 6.6
  endloop
endfacet
facet normal 0.0 0.0 1.0
  outer loop
    vertex 0.546172071769018 2.515049281144314 6.6
    vertex 0.7312441264753983 0.7909330266470126 6.6
    vertex 1.1973606499922123 2.245318140381814 6.6
  endloop
endfacet
facet normal 0.0 0.0 1.0
  outer loop
    vertex 1.1973606499922123 2.245318140381814 6.6
    vertex 0.7312441264753983 0.7909330266470126 6.6
    vertex 0.9298924047227617 0.5320495501638283 6.6
  endloop
endfacet
facet normal 0.0 0.0 1.0
  outer loop
    vertex 1.1973606499922123 2.245318140381814 6.6
    vertex 0.9298924047227617 0.5320495501638283 6.6
    vertex 1.0547679328535489 0.23057335654197952 6.6
  endloop
endfacet
facet normal 0.0 0.0 1.0
  outer loop
    vertex 1.1973606499922123 2.245318140381814 6.6
    vertex 1.0547679328535489 0.23057335654197952 6.6
    vertex 1.0973606499922133 -0.09295044983617112 6.6
  endloop
endfacet
facet normal 0.6087614290087203 0.7933533402912354 0.0
  outer loop
    vertex -2.061827659211466 -2.00213875903985 7.999999999999999
    vertex -1.5026393500077868 -2.431219040054156 6.6
    vertex -2.061827659211466 -2.00213875903985 6.6
  endloop
endfacet
facet normal 0.6087614290087203 0.7933533402912354 0.0
  outer loop
    vertex -1.5026393500077868 -2.431219040054156 6.6
    vertex -2.061827659211466 -2.00213875903985 7.999999999999999
    vertex -1.5026393500077868 -2.431219040054156 7.999999999999999
  endloop
endfacet
facet normal 0.3826834323650895 0.9238795325112868 0.0
  outer loop
    vertex -1.5026393500077868 -2.431219040054156 7.999999999999999
    vertex -0.851450771784593 -2.700950180816656 6.6
    vertex -1.5026393500077868 -2.431219040054156 6.6
  endloop
endfacet
facet normal 0.3826834323650895 0.9238795325112868 0.0
  outer loop
    vertex -0.851450771784593 -2.700950180816656 6.6
    vertex -1.5026393500077868 -2.431219040054156 7.999999999999999
    vertex -0.851450771784593 -2.700950180816656 7.999999999999999
  endloop
endfacet
facet normal 0.7933533402912355 0.6087614290087204 0.0
  outer loop
    vertex -1.2351711047383356 -0.7179504498361716 5.599999999999999
    vertex -1.0365228264909718 -0.9768339263193561 6.6
    vertex -1.0365228264909718 -0.9768339263193561 5.599999999999999
  endloop
endfacet
facet normal 0.7933533402912355 0.6087614290087204 0.0
  outer loop
    vertex -1.0365228264909718 -0.9768339263193561 6.6
    vertex -1.2351711047383356 -0.7179504498361716 5.599999999999999
    vertex -1.2351711047383356 -0.7179504498361716 6.6
  endloop
endfacet
facet normal -0.9914448613738106 0.13052619222005146 0.0
  outer loop
    vertex 1.0973606499922133 -0.09295044983617112 6.6
    vertex 1.0547679328535489 -0.4164742562143218 5.599999999999999
    vertex 1.0547679328535489 -0.4164742562143218 6.6
  endloop
endfacet
facet normal -0.9914448613738106 0.13052619222005146 0.0
  outer loop
    vertex 1.0547679328535489 -0.4164742562143218 5.599999999999999
    vertex 1.0973606499922133 -0.09295044983617112 6.6
    vertex 1.0973606499922133 -0.09295044983617112 5.599999999999999
  endloop
endfacet
facet normal -0.6087614290087203 -0.7933533402912355 -0.0
  outer loop
    vertex 1.7565489591958905 1.8162378593675081 7.999999999999999
    vertex 1.1973606499922123 2.245318140381814 6.6
    vertex 1.7565489591958905 1.8162378593675081 6.6
  endloop
endfacet
facet normal -0.6087614290087203 -0.7933533402912355 -0.0
  outer loop
    vertex 1.1973606499922123 2.245318140381814 6.6
    vertex 1.7565489591958905 1.8162378593675081 7.999999999999999
    vertex 1.1973606499922123 2.245318140381814 7.999999999999999
  endloop
endfacet
facet normal -0.13052619222005213 0.9914448613738104 -0.0
  outer loop
    vertex -0.15263935000778703 -2.7929504498361717 7.999999999999999
    vertex 0.5461720717690213 -2.700950180816655 6.6
    vertex -0.15263935000778703 -2.7929504498361717 6.6
  endloop
endfacet
facet normal -0.13052619222005213 0.9914448613738104 -0.0
  outer loop
    vertex 0.5461720717690213 -2.700950180816655 6.6
    vertex -0.15263935000778703 -2.7929504498361717 7.999999999999999
    vertex 0.5461720717690213 -2.700950180816655 7.999999999999999
  endloop
endfacet
facet normal -0.1305261922200511 -0.9914448613738105 -0.0
  outer loop
    vertex 0.546172071769018 2.515049281144314 7.999999999999999
    vertex -0.15263935000778736 2.607049550163829 6.6
    vertex 0.546172071769018 2.515049281144314 6.6
  endloop
endfacet
facet normal -0.1305261922200511 -0.9914448613738105 -0.0
  outer loop
    vertex -0.15263935000778736 2.607049550163829 6.6
    vertex 0.546172071769018 2.515049281144314 7.999999999999999
    vertex -0.15263935000778736 2.607049550163829 7.999999999999999
  endloop
endfacet
facet normal 0.13052619222005174 0.9914448613738104 0.0
  outer loop
    vertex -0.851450771784593 -2.700950180816656 7.999999999999999
    vertex -0.15263935000778703 -2.7929504498361717 6.6
    vertex -0.851450771784593 -2.700950180816656 6.6
  endloop
endfacet
facet normal 0.13052619222005174 0.9914448613738104 0.0
  outer loop
    vertex -0.15263935000778703 -2.7929504498361717 6.6
    vertex -0.851450771784593 -2.700950180816656 7.999999999999999
    vertex -0.15263935000778703 -2.7929504498361717 7.999999999999999
  endloop
endfacet
facet normal -0.9914448613738105 0.1305261922200511 -0.0
  outer loop
    vertex 2.5473606499922132 -0.09295044983617086 7.999999999999999
    vertex 2.455360380972698 -0.7917618716129763 6.6
    vertex 2.455360380972698 -0.7917618716129763 7.999999999999999
  endloop
endfacet
facet normal -0.9914448613738105 0.1305261922200511 -0.0
  outer loop
    vertex 2.455360380972698 -0.7917618716129763 6.6
    vertex 2.5473606499922132 -0.09295044983617086 7.999999999999999
    vertex 2.5473606499922132 -0.09295044983617086 6.6
  endloop
endfacet
facet normal -0.7933533402912347 -0.6087614290087213 -0.0
  outer loop
    vertex 1.7565489591958905 1.8162378593675081 7.999999999999999
    vertex 2.185629240210197 1.25704955016383 6.6
    vertex 2.185629240210197 1.25704955016383 7.999999999999999
  endloop
endfacet
facet normal -0.7933533402912347 -0.6087614290087213 -0.0
  outer loop
    vertex 2.185629240210197 1.25704955016383 6.6
    vertex 1.7565489591958905 1.8162378593675081 7.999999999999999
    vertex 1.7565489591958905 1.8162378593675081 6.6
  endloop
endfacet
facet normal -0.6087614290087209 0.793353340291235 -0.0
  outer loop
    vertex 1.1973606499922143 -2.431219040054155 7.999999999999999
    vertex 1.756548959195892 -2.0021387590398496 6.6
    vertex 1.1973606499922143 -2.431219040054155 6.6
  endloop
endfacet
facet normal -0.6087614290087209 0.793353340291235 -0.0
  outer loop
    vertex 1.756548959195892 -2.0021387590398496 6.6
    vertex 1.1973606499922143 -2.431219040054155 7.999999999999999
    vertex 1.756548959195892 -2.0021387590398496 7.999999999999999
  endloop
endfacet
facet normal -0.9238795325112867 -0.3826834323650899 -0.0
  outer loop
    vertex 2.185629240210197 1.25704955016383 7.999999999999999
    vertex 2.455360380972697 0.6058609719406368 6.6
    vertex 2.455360380972697 0.6058609719406368 7.999999999999999
  endloop
endfacet
facet normal -0.9238795325112867 -0.3826834323650899 -0.0
  outer loop
    vertex 2.455360380972697 0.6058609719406368 6.6
    vertex 2.185629240210197 1.25704955016383 7.999999999999999
    vertex 2.185629240210197 1.25704955016383 6.6
  endloop
endfacet
facet normal 0.38268343236509006 -0.9238795325112866 -0.0
  outer loop
    vertex -0.8514507717845939 2.515049281144313 7.999999999999999
    vertex -1.502639350007788 2.245318140381813 6.6
    vertex -0.8514507717845939 2.515049281144313 6.6
  endloop
endfacet
facet normal 0.38268343236509006 -0.9238795325112866 -0.0
  outer loop
    vertex -1.502639350007788 2.245318140381813 6.6
    vertex -0.8514507717845939 2.515049281144313 7.999999999999999
    vertex -1.502639350007788 2.245318140381813 7.999999999999999
  endloop
endfacet
facet normal -0.38268343236508967 -0.9238795325112868 -0.0
  outer loop
    vertex 1.1973606499922123 2.245318140381814 7.999999999999999
    vertex 0.546172071769018 2.515049281144314 6.6
    vertex 1.1973606499922123 2.245318140381814 6.6
  endloop
endfacet
facet normal -0.38268343236508967 -0.9238795325112868 -0.0
  outer loop
    vertex 0.546172071769018 2.515049281144314 6.6
    vertex 1.1973606499922123 2.245318140381814 7.999999999999999
    vertex 0.546172071769018 2.515049281144314 7.999999999999999
  endloop
endfacet
facet normal 0.9238795325112868 -0.3826834323650895 -0.0
  outer loop
    vertex -2.490907940225772 1.2570495501638281 6.6
    vertex -2.7606390809882715 0.6058609719406344 7.999999999999999
    vertex -2.7606390809882715 0.6058609719406344 6.6
  endloop
endfacet
facet normal 0.9238795325112868 -0.3826834323650895 -0.0
  outer loop
    vertex -2.7606390809882715 0.6058609719406344 7.999999999999999
    vertex -2.490907940225772 1.2570495501638281 6.6
    vertex -2.490907940225772 1.2570495501638281 7.999999999999999
  endloop
endfacet
facet normal 0.6087614290087209 -0.793353340291235 -0.0
  outer loop
    vertex -1.502639350007788 2.245318140381813 7.999999999999999
    vertex -2.061827659211466 1.816237859367507 6.6
    vertex -1.502639350007788 2.245318140381813 6.6
  endloop
endfacet
facet normal 0.6087614290087209 -0.793353340291235 -0.0
  outer loop
    vertex -2.061827659211466 1.816237859367507 6.6
    vertex -1.502639350007788 2.245318140381813 7.999999999999999
    vertex -2.061827659211466 1.816237859367507 7.999999999999999
  endloop
endfacet
facet normal 0.9238795325112866 0.3826834323650899 0.0
  outer loop
    vertex -2.7606390809882715 -0.7917618716129781 6.6
    vertex -2.4909079402257714 -1.4429504498361718 7.999999999999999
    vertex -2.4909079402257714 -1.4429504498361718 6.6
  endloop
endfacet
facet normal 0.9238795325112866 0.3826834323650899 0.0
  outer loop
    vertex -2.4909079402257714 -1.4429504498361718 7.999999999999999
    vertex -2.7606390809882715 -0.7917618716129781 6.6
    vertex -2.7606390809882715 -0.7917618716129781 7.999999999999999
  endloop
endfacet
facet normal 0.9914448613738105 0.13052619222005166 0.0
  outer loop
    vertex -2.852639350007787 -0.09295044983617151 6.6
    vertex -2.7606390809882715 -0.7917618716129781 7.999999999999999
    vertex -2.7606390809882715 -0.7917618716129781 6.6
  endloop
endfacet
facet normal 0.9914448613738105 0.13052619222005166 0.0
  outer loop
    vertex -2.7606390809882715 -0.7917618716129781 7.999999999999999
    vertex -2.852639350007787 -0.09295044983617151 6.6
    vertex -2.852639350007787 -0.09295044983617151 7.999999999999999
  endloop
endfacet
facet normal -0.7933533402912355 0.6087614290087203 -0.0
  outer loop
    vertex 2.1856292402101984 -1.4429504498361698 7.999999999999999
    vertex 1.756548959195892 -2.0021387590398496 6.6
    vertex 1.756548959195892 -2.0021387590398496 7.999999999999999
  endloop
endfacet
facet normal -0.7933533402912355 0.6087614290087203 -0.0
  outer loop
    vertex 1.756548959195892 -2.0021387590398496 6.6
    vertex 2.1856292402101984 -1.4429504498361698 7.999999999999999
    vertex 2.1856292402101984 -1.4429504498361698 6.6
  endloop
endfacet
facet normal -0.3826834323650903 0.9238795325112865 -0.0
  outer loop
    vertex 0.5461720717690213 -2.700950180816655 7.999999999999999
    vertex 1.1973606499922143 -2.431219040054155 6.6
    vertex 0.5461720717690213 -2.700950180816655 6.6
  endloop
endfacet
facet normal -0.3826834323650903 0.9238795325112865 -0.0
  outer loop
    vertex 1.1973606499922143 -2.431219040054155 6.6
    vertex 0.5461720717690213 -2.700950180816655 7.999999999999999
    vertex 1.1973606499922143 -2.431219040054155 7.999999999999999
  endloop
endfacet
facet normal -0.9238795325112868 0.3826834323650893 -0.0
  outer loop
    vertex 2.455360380972698 -0.7917618716129763 7.999999999999999
    vertex 2.1856292402101984 -1.4429504498361698 6.6
    vertex 2.1856292402101984 -1.4429504498361698 7.999999999999999
  endloop
endfacet
facet normal -0.9238795325112868 0.3826834323650893 -0.0
  outer loop
    vertex 2.1856292402101984 -1.4429504498361698 6.6
    vertex 2.455360380972698 -0.7917618716129763 7.999999999999999
    vertex 2.455360380972698 -0.7917618716129763 6.6
  endloop
endfacet
facet normal 0.13052619222005166 -0.9914448613738105 -0.0
  outer loop
    vertex -0.15263935000778736 2.607049550163829 7.999999999999999
    vertex -0.8514507717845939 2.515049281144313 6.6
    vertex -0.15263935000778736 2.607049550163829 6.6
  endloop
endfacet
facet normal 0.13052619222005166 -0.9914448613738105 -0.0
  outer loop
    vertex -0.8514507717845939 2.515049281144313 6.6
    vertex -0.15263935000778736 2.607049550163829 7.999999999999999
    vertex -0.8514507717845939 2.515049281144313 7.999999999999999
  endloop
endfacet
facet normal 0.7933533402912353 0.6087614290087205 0.0
  outer loop
    vertex -2.4909079402257714 -1.4429504498361718 6.6
    vertex -2.061827659211466 -2.00213875903985 7.999999999999999
    vertex -2.061827659211466 -2.00213875903985 6.6
  endloop
endfacet
facet normal 0.7933533402912353 0.6087614290087205 0.0
  outer loop
    vertex -2.061827659211466 -2.00213875903985 7.999999999999999
    vertex -2.4909079402257714 -1.4429504498361718 6.6
    vertex -2.4909079402257714 -1.4429504498361718 7.999999999999999
  endloop
endfacet
facet normal -0.7933533402912359 0.6087614290087197 0.0
  outer loop
    vertex 0.929892404722762 -0.7179504498361706 6.6
    vertex 0.7312441264753986 -0.9768339263193551 5.599999999999999
    vertex 0.7312441264753986 -0.9768339263193551 6.6
  endloop
endfacet
facet normal -0.7933533402912359 0.6087614290087197 0.0
  outer loop
    vertex 0.7312441264753986 -0.9768339263193551 5.599999999999999
    vertex 0.929892404722762 -0.7179504498361706 6.6
    vertex 0.929892404722762 -0.7179504498361706 5.599999999999999
  endloop
endfacet
facet normal 0.7933533402912354 -0.6087614290087203 -0.0
  outer loop
    vertex -2.061827659211466 1.816237859367507 6.6
    vertex -2.490907940225772 1.2570495501638281 7.999999999999999
    vertex -2.490907940225772 1.2570495501638281 6.6
  endloop
endfacet
facet normal 0.7933533402912354 -0.6087614290087203 -0.0
  outer loop
    vertex -2.490907940225772 1.2570495501638281 7.999999999999999
    vertex -2.061827659211466 1.816237859367507 6.6
    vertex -2.061827659211466 1.816237859367507 7.999999999999999
  endloop
endfacet
facet normal -0.6087614290087217 0.7933533402912345 0.0
  outer loop
    vertex 0.47236064999221467 -1.175482204566719 6.6
    vertex 0.7312441264753986 -0.9768339263193551 5.599999999999999
    vertex 0.47236064999221467 -1.175482204566719 5.599999999999999
  endloop
endfacet
facet normal -0.6087614290087217 0.7933533402912345 0.0
  outer loop
    vertex 0.7312441264753986 -0.9768339263193551 5.599999999999999
    vertex 0.47236064999221467 -1.175482204566719 6.6
    vertex 0.7312441264753986 -0.9768339263193551 6.6
  endloop
endfacet
facet normal -0.3826834323650909 0.9238795325112864 0.0
  outer loop
    vertex 0.17088445637036603 -1.3003577326975064 6.6
    vertex 0.47236064999221467 -1.175482204566719 5.599999999999999
    vertex 0.17088445637036603 -1.3003577326975064 5.599999999999999
  endloop
endfacet
facet normal -0.3826834323650909 0.9238795325112864 0.0
  outer loop
    vertex 0.47236064999221467 -1.175482204566719 5.599999999999999
    vertex 0.17088445637036603 -1.3003577326975064 6.6
    vertex 0.47236064999221467 -1.175482204566719 6.6
  endloop
endfacet
facet normal -0.13052619222005263 0.9914448613738104 0.0
  outer loop
    vertex -0.15263935000778703 -1.3429504498361717 6.6
    vertex 0.17088445637036603 -1.3003577326975064 5.599999999999999
    vertex -0.15263935000778703 -1.3429504498361717 5.599999999999999
  endloop
endfacet
facet normal -0.13052619222005263 0.9914448613738104 0.0
  outer loop
    vertex 0.17088445637036603 -1.3003577326975064 5.599999999999999
    vertex -0.15263935000778703 -1.3429504498361717 6.6
    vertex 0.17088445637036603 -1.3003577326975064 6.6
  endloop
endfacet
facet normal 0.13052619222005174 0.9914448613738105 0.0
  outer loop
    vertex -0.47616315638593804 -1.300357732697507 6.6
    vertex -0.15263935000778703 -1.3429504498361717 5.599999999999999
    vertex -0.47616315638593804 -1.300357732697507 5.599999999999999
  endloop
endfacet
facet normal 0.13052619222005174 0.9914448613738105 0.0
  outer loop
    vertex -0.15263935000778703 -1.3429504498361717 5.599999999999999
    vertex -0.47616315638593804 -1.300357732697507 6.6
    vertex -0.15263935000778703 -1.3429504498361717 6.6
  endloop
endfacet
facet normal -0.9914448613738103 -0.13052619222005227 -0.0
  outer loop
    vertex 2.455360380972697 0.6058609719406368 7.999999999999999
    vertex 2.5473606499922132 -0.09295044983617086 6.6
    vertex 2.5473606499922132 -0.09295044983617086 7.999999999999999
  endloop
endfacet
facet normal -0.9914448613738103 -0.13052619222005227 -0.0
  outer loop
    vertex 2.5473606499922132 -0.09295044983617086 6.6
    vertex 2.455360380972697 0.6058609719406368 7.999999999999999
    vertex 2.455360380972697 0.6058609719406368 6.6
  endloop
endfacet
facet normal 0.9914448613738104 -0.13052619222005177 -0.0
  outer loop
    vertex -2.7606390809882715 0.6058609719406344 6.6
    vertex -2.852639350007787 -0.09295044983617151 7.999999999999999
    vertex -2.852639350007787 -0.09295044983617151 6.6
  endloop
endfacet
facet normal 0.9914448613738104 -0.13052619222005177 -0.0
  outer loop
    vertex -2.852639350007787 -0.09295044983617151 7.999999999999999
    vertex -2.7606390809882715 0.6058609719406344 6.6
    vertex -2.7606390809882715 0.6058609719406344 7.999999999999999
  endloop
endfacet
facet normal -0.923879532511287 0.38268343236508917 0.0
  outer loop
    vertex 1.0547679328535489 -0.4164742562143218 6.6
    vertex 0.929892404722762 -0.7179504498361706 5.599999999999999
    vertex 0.929892404722762 -0.7179504498361706 6.6
  endloop
endfacet
facet normal -0.923879532511287 0.38268343236508917 0.0
  outer loop
    vertex 0.929892404722762 -0.7179504498361706 5.599999999999999
    vertex 1.0547679328535489 -0.4164742562143218 6.6
    vertex 1.0547679328535489 -0.4164742562143218 5.599999999999999
  endloop
endfacet
facet normal 0.3826834323650898 0.9238795325112868 0.0
  outer loop
    vertex -0.7776393500077871 -1.17548220456672 6.6
    vertex -0.47616315638593804 -1.300357732697507 5.599999999999999
    vertex -0.7776393500077871 -1.17548220456672 5.599999999999999
  endloop
endfacet
facet normal 0.3826834323650898 0.9238795325112868 0.0
  outer loop
    vertex -0.47616315638593804 -1.300357732697507 5.599999999999999
    vertex -0.7776393500077871 -1.17548220456672 6.6
    vertex -0.47616315638593804 -1.300357732697507 6.6
  endloop
endfacet
facet normal 0.6087614290087203 0.7933533402912355 0.0
  outer loop
    vertex -1.0365228264909718 -0.9768339263193561 6.6
    vertex -0.7776393500077871 -1.17548220456672 5.599999999999999
    vertex -1.0365228264909718 -0.9768339263193561 5.599999999999999
  endloop
endfacet
facet normal 0.6087614290087203 0.7933533402912355 0.0
  outer loop
    vertex -0.7776393500077871 -1.17548220456672 5.599999999999999
    vertex -1.0365228264909718 -0.9768339263193561 6.6
    vertex -0.7776393500077871 -1.17548220456672 6.6
  endloop
endfacet
facet normal 0.9238795325112866 0.3826834323650901 0.0
  outer loop
    vertex -1.3600466328691228 -0.41647425621432266 5.599999999999999
    vertex -1.2351711047383356 -0.7179504498361716 6.6
    vertex -1.2351711047383356 -0.7179504498361716 5.599999999999999
  endloop
endfacet
facet normal 0.9238795325112866 0.3826834323650901 0.0
  outer loop
    vertex -1.2351711047383356 -0.7179504498361716 6.6
    vertex -1.3600466328691228 -0.41647425621432266 5.599999999999999
    vertex -1.3600466328691228 -0.41647425621432266 6.6
  endloop
endfacet
facet normal 0.9914448613738105 0.13052619222005177 0.0
  outer loop
    vertex -1.4026393500077874 -0.0929504498361717 5.599999999999999
    vertex -1.3600466328691228 -0.41647425621432266 6.6
    vertex -1.3600466328691228 -0.41647425621432266 5.599999999999999
  endloop
endfacet
facet normal 0.9914448613738105 0.13052619222005177 0.0
  outer loop
    vertex -1.3600466328691228 -0.41647425621432266 6.6
    vertex -1.4026393500077874 -0.0929504498361717 5.599999999999999
    vertex -1.4026393500077874 -0.0929504498361717 6.6
  endloop
endfacet
facet normal 0.3826834323650899 -0.9238795325112867 0.0
  outer loop
    vertex -0.4761631563859378 1.1144568330251645 6.6
    vertex -0.7776393500077871 0.9895813048943772 5.599999999999999
    vertex -0.4761631563859378 1.1144568330251645 5.599999999999999
  endloop
endfacet
facet normal 0.3826834323650899 -0.9238795325112867 0.0
  outer loop
    vertex -0.7776393500077871 0.9895813048943772 5.599999999999999
    vertex -0.4761631563859378 1.1144568330251645 6.6
    vertex -0.7776393500077871 0.9895813048943772 6.6
  endloop
endfacet
facet normal 0.7933533402912355 -0.6087614290087203 0.0
  outer loop
    vertex -1.0365228264909718 0.7909330266470131 5.599999999999999
    vertex -1.2351711047383356 0.5320495501638285 6.6
    vertex -1.2351711047383356 0.5320495501638285 5.599999999999999
  endloop
endfacet
facet normal 0.7933533402912355 -0.6087614290087203 0.0
  outer loop
    vertex -1.2351711047383356 0.5320495501638285 6.6
    vertex -1.0365228264909718 0.7909330266470131 5.599999999999999
    vertex -1.0365228264909718 0.7909330266470131 6.6
  endloop
endfacet
facet normal 0.13052619222005124 -0.9914448613738106 0.0
  outer loop
    vertex -0.1526393500077866 1.157049550163829 6.6
    vertex -0.4761631563859378 1.1144568330251645 5.599999999999999
    vertex -0.1526393500077866 1.157049550163829 5.599999999999999
  endloop
endfacet
facet normal 0.13052619222005124 -0.9914448613738106 0.0
  outer loop
    vertex -0.4761631563859378 1.1144568330251645 5.599999999999999
    vertex -0.1526393500077866 1.157049550163829 6.6
    vertex -0.4761631563859378 1.1144568330251645 6.6
  endloop
endfacet
facet normal 0.9914448613738105 -0.13052619222005177 0.0
  outer loop
    vertex -1.3600466328691228 0.23057335654197925 5.599999999999999
    vertex -1.4026393500077874 -0.0929504498361717 6.6
    vertex -1.4026393500077874 -0.0929504498361717 5.599999999999999
  endloop
endfacet
facet normal 0.9914448613738105 -0.13052619222005177 0.0
  outer loop
    vertex -1.4026393500077874 -0.0929504498361717 6.6
    vertex -1.3600466328691228 0.23057335654197925 5.599999999999999
    vertex -1.3600466328691228 0.23057335654197925 6.6
  endloop
endfacet
facet normal 0.6087614290087205 -0.7933533402912353 0.0
  outer loop
    vertex -0.7776393500077871 0.9895813048943772 6.6
    vertex -1.0365228264909718 0.7909330266470131 5.599999999999999
    vertex -0.7776393500077871 0.9895813048943772 5.599999999999999
  endloop
endfacet
facet normal 0.6087614290087205 -0.7933533402912353 0.0
  outer loop
    vertex -1.0365228264909718 0.7909330266470131 5.599999999999999
    vertex -0.7776393500077871 0.9895813048943772 6.6
    vertex -1.0365228264909718 0.7909330266470131 6.6
  endloop
endfacet
facet normal -0.38268343236509056 -0.9238795325112865 -0.0
  outer loop
    vertex 0.47236064999221383 0.9895813048943768 6.6
    vertex 0.17088445637036456 1.1144568330251643 5.599999999999999
    vertex 0.47236064999221383 0.9895813048943768 5.599999999999999
  endloop
endfacet
facet normal -0.38268343236509056 -0.9238795325112865 -0.0
  outer loop
    vertex 0.17088445637036456 1.1144568330251643 5.599999999999999
    vertex 0.47236064999221383 0.9895813048943768 6.6
    vertex 0.17088445637036456 1.1144568330251643 6.6
  endloop
endfacet
facet normal -0.6087614290087212 -0.7933533402912347 -0.0
  outer loop
    vertex 0.7312441264753983 0.7909330266470126 6.6
    vertex 0.47236064999221383 0.9895813048943768 5.599999999999999
    vertex 0.7312441264753983 0.7909330266470126 5.599999999999999
  endloop
endfacet
facet normal -0.6087614290087212 -0.7933533402912347 -0.0
  outer loop
    vertex 0.47236064999221383 0.9895813048943768 5.599999999999999
    vertex 0.7312441264753983 0.7909330266470126 6.6
    vertex 0.47236064999221383 0.9895813048943768 6.6
  endloop
endfacet
facet normal -0.7933533402912357 -0.6087614290087201 -0.0
  outer loop
    vertex 0.7312441264753983 0.7909330266470126 6.6
    vertex 0.9298924047227617 0.5320495501638283 5.599999999999999
    vertex 0.9298924047227617 0.5320495501638283 6.6
  endloop
endfacet
facet normal -0.7933533402912357 -0.6087614290087201 -0.0
  outer loop
    vertex 0.9298924047227617 0.5320495501638283 5.599999999999999
    vertex 0.7312441264753983 0.7909330266470126 6.6
    vertex 0.7312441264753983 0.7909330266470126 5.599999999999999
  endloop
endfacet
facet normal -0.9238795325112867 -0.38268343236509 -0.0
  outer loop
    vertex 0.9298924047227617 0.5320495501638283 6.6
    vertex 1.0547679328535489 0.23057335654197952 5.599999999999999
    vertex 1.0547679328535489 0.23057335654197952 6.6
  endloop
endfacet
facet normal -0.9238795325112867 -0.38268343236509 -0.0
  outer loop
    vertex 1.0547679328535489 0.23057335654197952 5.599999999999999
    vertex 0.9298924047227617 0.5320495501638283 6.6
    vertex 0.9298924047227617 0.5320495501638283 5.599999999999999
  endloop
endfacet
facet normal -0.9914448613738106 -0.13052619222005146 -0.0
  outer loop
    vertex 1.0547679328535489 0.23057335654197952 6.6
    vertex 1.0973606499922133 -0.09295044983617112 5.599999999999999
    vertex 1.0973606499922133 -0.09295044983617112 6.6
  endloop
endfacet
facet normal -0.9914448613738106 -0.13052619222005146 -0.0
  outer loop
    vertex 1.0973606499922133 -0.09295044983617112 5.599999999999999
    vertex 1.0547679328535489 0.23057335654197952 6.6
    vertex 1.0547679328535489 0.23057335654197952 5.599999999999999
  endloop
endfacet
facet normal -0.13052619222005166 -0.9914448613738104 -0.0
  outer loop
    vertex 0.17088445637036456 1.1144568330251643 6.6
    vertex -0.1526393500077866 1.157049550163829 5.599999999999999
    vertex 0.17088445637036456 1.1144568330251643 5.599999999999999
  endloop
endfacet
facet normal -0.13052619222005166 -0.9914448613738104 -0.0
  outer loop
    vertex -0.1526393500077866 1.157049550163829 5.599999999999999
    vertex 0.17088445637036456 1.1144568330251643 6.6
    vertex -0.1526393500077866 1.157049550163829 6.6
  endloop
endfacet
facet normal 0.923879532511287 -0.38268343236508945 0.0
  outer loop
    vertex -1.2351711047383356 0.5320495501638285 5.599999999999999
    vertex -1.3600466328691228 0.23057335654197925 6.6
    vertex -1.3600466328691228 0.23057335654197925 5.599999999999999
  endloop
endfacet
facet normal 0.923879532511287 -0.38268343236508945 0.0
  outer loop
    vertex -1.3600466328691228 0.23057335654197925 6.6
    vertex -1.2351711047383356 0.5320495501638285 5.599999999999999
    vertex -1.2351711047383356 0.5320495501638285 6.6
  endloop
endfacet
facet normal -0.0 -0.0 1.0
  outer loop
    vertex -5.388512965501921 -4.174401105227914 7.999999999999999
    vertex -2.4909079402257714 -1.4429504498361718 7.999999999999999
    vertex -5.388512965501921 3.8255988947721007 7.999999999999999
  endloop
endfacet
facet normal -0.0 -0.0 1.0
  outer loop
    vertex -2.4909079402257714 -1.4429504498361718 7.999999999999999
    vertex -5.388512965501921 -4.174401105227914 7.999999999999999
    vertex -2.061827659211466 -2.00213875903985 7.999999999999999
  endloop
endfacet
facet normal -0.0 -0.0 1.0
  outer loop
    vertex -2.061827659211466 -2.00213875903985 7.999999999999999
    vertex -5.388512965501921 -4.174401105227914 7.999999999999999
    vertex -1.5026393500077868 -2.431219040054156 7.999999999999999
  endloop
endfacet
facet normal -0.0 -0.0 1.0
  outer loop
    vertex -1.5026393500077868 -2.431219040054156 7.999999999999999
    vertex -5.388512965501921 -4.174401105227914 7.999999999999999
    vertex -0.851450771784593 -2.700950180816656 7.999999999999999
  endloop
endfacet
facet normal -0.0 -0.0 1.0
  outer loop
    vertex -0.851450771784593 -2.700950180816656 7.999999999999999
    vertex -5.388512965501921 -4.174401105227914 7.999999999999999
    vertex 5.61148703449809 -4.174401105227914 7.999999999999999
  endloop
endfacet
facet normal -0.0 -0.0 1.0
  outer loop
    vertex -5.388512965501921 3.8255988947721007 7.999999999999999
    vertex -2.4909079402257714 -1.4429504498361718 7.999999999999999
    vertex -2.7606390809882715 -0.7917618716129781 7.999999999999999
  endloop
endfacet
facet normal -0.0 -0.0 1.0
  outer loop
    vertex -5.388512965501921 3.8255988947721007 7.999999999999999
    vertex -2.7606390809882715 -0.7917618716129781 7.999999999999999
    vertex -2.852639350007787 -0.09295044983617151 7.999999999999999
  endloop
endfacet
facet normal -0.0 -0.0 1.0
  outer loop
    vertex -0.851450771784593 -2.700950180816656 7.999999999999999
    vertex 5.61148703449809 -4.174401105227914 7.999999999999999
    vertex -0.15263935000778703 -2.7929504498361717 7.999999999999999
  endloop
endfacet
facet normal -0.0 -0.0 1.0
  outer loop
    vertex -0.15263935000778703 -2.7929504498361717 7.999999999999999
    vertex 5.61148703449809 -4.174401105227914 7.999999999999999
    vertex 0.5461720717690213 -2.700950180816655 7.999999999999999
  endloop
endfacet
facet normal -0.0 -0.0 1.0
  outer loop
    vertex 0.5461720717690213 -2.700950180816655 7.999999999999999
    vertex 5.61148703449809 -4.174401105227914 7.999999999999999
    vertex 1.1973606499922143 -2.431219040054155 7.999999999999999
  endloop
endfacet
facet normal -0.0 -0.0 1.0
  outer loop
    vertex 1.1973606499922143 -2.431219040054155 7.999999999999999
    vertex 5.61148703449809 -4.174401105227914 7.999999999999999
    vertex 1.756548959195892 -2.0021387590398496 7.999999999999999
  endloop
endfacet
facet normal -0.0 -0.0 1.0
  outer loop
    vertex 1.756548959195892 -2.0021387590398496 7.999999999999999
    vertex 5.61148703449809 -4.174401105227914 7.999999999999999
    vertex 2.1856292402101984 -1.4429504498361698 7.999999999999999
  endloop
endfacet
facet normal -0.0 -0.0 1.0
  outer loop
    vertex 2.1856292402101984 -1.4429504498361698 7.999999999999999
    vertex 5.61148703449809 -4.174401105227914 7.999999999999999
    vertex 2.455360380972698 -0.7917618716129763 7.999999999999999
  endloop
endfacet
facet normal -0.0 -0.0 1.0
  outer loop
    vertex 2.455360380972698 -0.7917618716129763 7.999999999999999
    vertex 5.61148703449809 -4.174401105227914 7.999999999999999
    vertex 2.5473606499922132 -0.09295044983617086 7.999999999999999
  endloop
endfacet
facet normal -0.0 -0.0 1.0
  outer loop
    vertex -5.388512965501921 3.8255988947721007 7.999999999999999
    vertex -0.8514507717845939 2.515049281144313 7.999999999999999
    vertex 5.61148703449809 3.8255988947721007 7.999999999999999
  endloop
endfacet
facet normal -0.0 -0.0 1.0
  outer loop
    vertex -0.8514507717845939 2.515049281144313 7.999999999999999
    vertex -5.388512965501921 3.8255988947721007 7.999999999999999
    vertex -1.502639350007788 2.245318140381813 7.999999999999999
  endloop
endfacet
facet normal -0.0 -0.0 1.0
  outer loop
    vertex -1.502639350007788 2.245318140381813 7.999999999999999
    vertex -5.388512965501921 3.8255988947721007 7.999999999999999
    vertex -2.061827659211466 1.816237859367507 7.999999999999999
  endloop
endfacet
facet normal -0.0 -0.0 1.0
  outer loop
    vertex -2.061827659211466 1.816237859367507 7.999999999999999
    vertex -5.388512965501921 3.8255988947721007 7.999999999999999
    vertex -2.490907940225772 1.2570495501638281 7.999999999999999
  endloop
endfacet
facet normal -0.0 -0.0 1.0
  outer loop
    vertex -2.490907940225772 1.2570495501638281 7.999999999999999
    vertex -5.388512965501921 3.8255988947721007 7.999999999999999
    vertex -2.7606390809882715 0.6058609719406344 7.999999999999999
  endloop
endfacet
facet normal -0.0 -0.0 1.0
  outer loop
    vertex -2.7606390809882715 0.6058609719406344 7.999999999999999
    vertex -5.388512965501921 3.8255988947721007 7.999999999999999
    vertex -2.852639350007787 -0.09295044983617151 7.999999999999999
  endloop
endfacet
facet normal -0.0 -0.0 1.0
  outer loop
    vertex 5.61148703449809 3.8255988947721007 7.999999999999999
    vertex -0.8514507717845939 2.515049281144313 7.999999999999999
    vertex -0.15263935000778736 2.607049550163829 7.999999999999999
  endloop
endfacet
facet normal -0.0 -0.0 1.0
  outer loop
    vertex 5.61148703449809 3.8255988947721007 7.999999999999999
    vertex -0.15263935000778736 2.607049550163829 7.999999999999999
    vertex 0.546172071769018 2.515049281144314 7.999999999999999
  endloop
endfacet
facet normal -0.0 -0.0 1.0
  outer loop
    vertex 5.61148703449809 3.8255988947721007 7.999999999999999
    vertex 0.546172071769018 2.515049281144314 7.999999999999999
    vertex 1.1973606499922123 2.245318140381814 7.999999999999999
  endloop
endfacet
facet normal -0.0 -0.0 1.0
  outer loop
    vertex 5.61148703449809 3.8255988947721007 7.999999999999999
    vertex 1.1973606499922123 2.245318140381814 7.999999999999999
    vertex 1.7565489591958905 1.8162378593675081 7.999999999999999
  endloop
endfacet
facet normal -0.0 -0.0 1.0
  outer loop
    vertex 5.61148703449809 3.8255988947721007 7.999999999999999
    vertex 1.7565489591958905 1.8162378593675081 7.999999999999999
    vertex 2.185629240210197 1.25704955016383 7.999999999999999
  endloop
endfacet
facet normal -0.0 -0.0 1.0
  outer loop
    vertex 5.61148703449809 3.8255988947721007 7.999999999999999
    vertex 2.185629240210197 1.25704955016383 7.999999999999999
    vertex 2.455360380972697 0.6058609719406368 7.999999999999999
  endloop
endfacet
facet normal -0.0 -0.0 1.0
  outer loop
    vertex 5.61148703449809 3.8255988947721007 7.999999999999999
    vertex 2.455360380972697 0.6058609719406368 7.999999999999999
    vertex 2.5473606499922132 -0.09295044983617086 7.999999999999999
  endloop
endfacet
facet normal -0.0 -0.0 1.0
  outer loop
    vertex 5.61148703449809 3.8255988947721007 7.999999999999999
    vertex 2.5473606499922132 -0.09295044983617086 7.999999999999999
    vertex 5.61148703449809 -4.174401105227914 7.999999999999999
  endloop
endfacet
facet normal 0.0 -1.0 0.0
  outer loop
    vertex 5.61148703449809 -4.174401105227914 7.999999999999999
    vertex 2.0148063111195023 -4.174401105227914 0.0
    vertex 5.61148703449809 -4.174401105227914 0.0
  endloop
endfacet
facet normal 0.0 -1.0 0.0
  outer loop
    vertex 2.0148063111195023 -4.174401105227914 0.0
    vertex 5.61148703449809 -4.174401105227914 7.999999999999999
    vertex 2.0148063111195023 -4.174401105227914 4.982950670525045
  endloop
endfacet
facet normal 0.0 -1.0 0.0
  outer loop
    vertex 2.0148063111195023 -4.174401105227914 4.982950670525045
    vertex 5.61148703449809 -4.174401105227914 7.999999999999999
    vertex -1.9851936888804997 -4.174401105227914 4.982950670525045
  endloop
endfacet
facet normal 0.0 -1.0 0.0
  outer loop
    vertex -1.9851936888804997 -4.174401105227914 4.982950670525045
    vertex -5.388512965501921 -4.174401105227914 0.0
    vertex -1.9851936888804997 -4.174401105227914 0.0
  endloop
endfacet
facet normal 0.0 -1.0 0.0
  outer loop
    vertex -5.388512965501921 -4.174401105227914 0.0
    vertex -1.9851936888804997 -4.174401105227914 4.982950670525045
    vertex -5.388512965501921 -4.174401105227914 7.999999999999999
  endloop
endfacet
facet normal 0.0 -1.0 0.0
  outer loop
    vertex -5.388512965501921 -4.174401105227914 7.999999999999999
    vertex -1.9851936888804997 -4.174401105227914 4.982950670525045
    vertex 5.61148703449809 -4.174401105227914 7.999999999999999
  endloop
endfacet
facet normal 0.0 0.0 -1.0
  outer loop
    vertex -3.8885129655019215 2.325598894772101 5.599999999999999
    vertex -1.0365228264909718 0.7909330266470131 5.599999999999999
    vertex -3.8885129655019215 -2.674401105227915 5.599999999999999
  endloop
endfacet
facet normal 0.0 0.0 -1.0
  outer loop
    vertex -1.0365228264909718 0.7909330266470131 5.599999999999999
    vertex -3.8885129655019215 2.325598894772101 5.599999999999999
    vertex -0.7776393500077871 0.9895813048943772 5.599999999999999
  endloop
endfacet
facet normal 0.0 0.0 -1.0
  outer loop
    vertex -0.7776393500077871 0.9895813048943772 5.599999999999999
    vertex -3.8885129655019215 2.325598894772101 5.599999999999999
    vertex -0.4761631563859378 1.1144568330251645 5.599999999999999
  endloop
endfacet
facet normal 0.0 0.0 -1.0
  outer loop
    vertex -0.4761631563859378 1.1144568330251645 5.599999999999999
    vertex -3.8885129655019215 2.325598894772101 5.599999999999999
    vertex 4.11148703449809 2.325598894772101 5.599999999999999
  endloop
endfacet
facet normal 0.0 0.0 -1.0
  outer loop
    vertex -3.8885129655019215 -2.674401105227915 5.599999999999999
    vertex -1.0365228264909718 0.7909330266470131 5.599999999999999
    vertex -1.2351711047383356 0.5320495501638285 5.599999999999999
  endloop
endfacet
facet normal 0.0 0.0 -1.0
  outer loop
    vertex -3.8885129655019215 -2.674401105227915 5.599999999999999
    vertex -1.2351711047383356 0.5320495501638285 5.599999999999999
    vertex -1.3600466328691228 0.23057335654197925 5.599999999999999
  endloop
endfacet
facet normal 0.0 0.0 -1.0
  outer loop
    vertex -3.8885129655019215 -2.674401105227915 5.599999999999999
    vertex -1.3600466328691228 0.23057335654197925 5.599999999999999
    vertex -1.4026393500077874 -0.0929504498361717 5.599999999999999
  endloop
endfacet
facet normal 0.0 0.0 -1.0
  outer loop
    vertex -0.4761631563859378 1.1144568330251645 5.599999999999999
    vertex 4.11148703449809 2.325598894772101 5.599999999999999
    vertex -0.1526393500077866 1.157049550163829 5.599999999999999
  endloop
endfacet
facet normal 0.0 0.0 -1.0
  outer loop
    vertex -0.1526393500077866 1.157049550163829 5.599999999999999
    vertex 4.11148703449809 2.325598894772101 5.599999999999999
    vertex 0.17088445637036456 1.1144568330251643 5.599999999999999
  endloop
endfacet
facet normal 0.0 0.0 -1.0
  outer loop
    vertex 0.17088445637036456 1.1144568330251643 5.599999999999999
    vertex 4.11148703449809 2.325598894772101 5.599999999999999
    vertex 0.47236064999221383 0.9895813048943768 5.599999999999999
  endloop
endfacet
facet normal 0.0 0.0 -1.0
  outer loop
    vertex 0.47236064999221383 0.9895813048943768 5.599999999999999
    vertex 4.11148703449809 2.325598894772101 5.599999999999999
    vertex 0.7312441264753983 0.7909330266470126 5.599999999999999
  endloop
endfacet
facet normal 0.0 0.0 -1.0
  outer loop
    vertex 0.7312441264753983 0.7909330266470126 5.599999999999999
    vertex 4.11148703449809 2.325598894772101 5.599999999999999
    vertex 0.9298924047227617 0.5320495501638283 5.599999999999999
  endloop
endfacet
facet normal 0.0 0.0 -1.0
  outer loop
    vertex 0.9298924047227617 0.5320495501638283 5.599999999999999
    vertex 4.11148703449809 2.325598894772101 5.599999999999999
    vertex 1.0547679328535489 0.23057335654197952 5.599999999999999
  endloop
endfacet
facet normal 0.0 0.0 -1.0
  outer loop
    vertex 1.0547679328535489 0.23057335654197952 5.599999999999999
    vertex 4.11148703449809 2.325598894772101 5.599999999999999
    vertex 1.0973606499922133 -0.09295044983617112 5.599999999999999
  endloop
endfacet
facet normal 0.0 0.0 -1.0
  outer loop
    vertex -3.8885129655019215 -2.674401105227915 5.599999999999999
    vertex -0.47616315638593804 -1.300357732697507 5.599999999999999
    vertex 4.11148703449809 -2.674401105227915 5.599999999999999
  endloop
endfacet
facet normal 0.0 0.0 -1.0
  outer loop
    vertex -0.47616315638593804 -1.300357732697507 5.599999999999999
    vertex -3.8885129655019215 -2.674401105227915 5.599999999999999
    vertex -0.7776393500077871 -1.17548220456672 5.599999999999999
  endloop
endfacet
facet normal 0.0 0.0 -1.0
  outer loop
    vertex -0.7776393500077871 -1.17548220456672 5.599999999999999
    vertex -3.8885129655019215 -2.674401105227915 5.599999999999999
    vertex -1.0365228264909718 -0.9768339263193561 5.599999999999999
  endloop
endfacet
facet normal 0.0 0.0 -1.0
  outer loop
    vertex -1.0365228264909718 -0.9768339263193561 5.599999999999999
    vertex -3.8885129655019215 -2.674401105227915 5.599999999999999
    vertex -1.2351711047383356 -0.7179504498361716 5.599999999999999
  endloop
endfacet
facet normal 0.0 0.0 -1.0
  outer loop
    vertex -1.2351711047383356 -0.7179504498361716 5.599999999999999
    vertex -3.8885129655019215 -2.674401105227915 5.599999999999999
    vertex -1.3600466328691228 -0.41647425621432266 5.599999999999999
  endloop
endfacet
facet normal 0.0 0.0 -1.0
  outer loop
    vertex -1.3600466328691228 -0.41647425621432266 5.599999999999999
    vertex -3.8885129655019215 -2.674401105227915 5.599999999999999
    vertex -1.4026393500077874 -0.0929504498361717 5.599999999999999
  endloop
endfacet
facet normal 0.0 0.0 -1.0
  outer loop
    vertex 4.11148703449809 -2.674401105227915 5.599999999999999
    vertex -0.47616315638593804 -1.300357732697507 5.599999999999999
    vertex -0.15263935000778703 -1.3429504498361717 5.599999999999999
  endloop
endfacet
facet normal 0.0 0.0 -1.0
  outer loop
    vertex 4.11148703449809 -2.674401105227915 5.599999999999999
    vertex -0.15263935000778703 -1.3429504498361717 5.599999999999999
    vertex 0.17088445637036603 -1.3003577326975064 5.599999999999999
  endloop
endfacet
facet normal 0.0 0.0 -1.0
  outer loop
    vertex 4.11148703449809 -2.674401105227915 5.599999999999999
    vertex 0.17088445637036603 -1.3003577326975064 5.599999999999999
    vertex 0.47236064999221467 -1.175482204566719 5.599999999999999
  endloop
endfacet
facet normal 0.0 0.0 -1.0
  outer loop
    vertex 4.11148703449809 -2.674401105227915 5.599999999999999
    vertex 0.47236064999221467 -1.175482204566719 5.599999999999999
    vertex 0.7312441264753986 -0.9768339263193551 5.599999999999999
  endloop
endfacet
facet normal 0.0 0.0 -1.0
  outer loop
    vertex 4.11148703449809 -2.674401105227915 5.599999999999999
    vertex 0.7312441264753986 -0.9768339263193551 5.599999999999999
    vertex 0.929892404722762 -0.7179504498361706 5.599999999999999
  endloop
endfacet
facet normal 0.0 0.0 -1.0
  outer loop
    vertex 4.11148703449809 -2.674401105227915 5.599999999999999
    vertex 0.929892404722762 -0.7179504498361706 5.599999999999999
    vertex 1.0547679328535489 -0.4164742562143218 5.599999999999999
  endloop
endfacet
facet normal 0.0 0.0 -1.0
  outer loop
    vertex 4.11148703449809 -2.674401105227915 5.599999999999999
    vertex 1.0547679328535489 -0.4164742562143218 5.599999999999999
    vertex 1.0973606499922133 -0.09295044983617112 5.599999999999999
  endloop
endfacet
facet normal 0.0 0.0 -1.0
  outer loop
    vertex 4.11148703449809 -2.674401105227915 5.599999999999999
    vertex 1.0973606499922133 -0.09295044983617112 5.599999999999999
    vertex 4.11148703449809 2.325598894772101 5.599999999999999
  endloop
endfacet
facet normal -0.0 -0.0 1.0
  outer loop
    vertex 7.11148703449809 -5.674401105227914 0.0
    vertex 2.0148063111195023 -4.174401105227914 0.0
    vertex 2.0148063111195023 -5.674401105227914 0.0
  endloop
endfacet
facet normal -0.0 -0.0 1.0
  outer loop
    vertex 2.0148063111195023 -4.174401105227914 0.0
    vertex 7.11148703449809 -5.674401105227914 0.0
    vertex 5.61148703449809 -4.174401105227914 0.0
  endloop
endfacet
facet normal -0.0 -0.0 1.0
  outer loop
    vertex 5.61148703449809 -4.174401105227914 0.0
    vertex 7.11148703449809 -5.674401105227914 0.0
    vertex 5.61148703449809 3.8255988947721007 0.0
  endloop
endfacet
facet normal -0.0 -0.0 1.0
  outer loop
    vertex 5.61148703449809 3.8255988947721007 0.0
    vertex 2.0148063111195023 5.3255988947721 0.0
    vertex 2.0148063111195023 3.8255988947721007 0.0
  endloop
endfacet
facet normal -0.0 -0.0 1.0
  outer loop
    vertex 2.0148063111195023 5.3255988947721 0.0
    vertex 5.61148703449809 3.8255988947721007 0.0
    vertex 7.11148703449809 5.3255988947721 0.0
  endloop
endfacet
facet normal -0.0 -0.0 1.0
  outer loop
    vertex 7.11148703449809 5.3255988947721 0.0
    vertex 5.61148703449809 3.8255988947721007 0.0
    vertex 7.11148703449809 -5.674401105227914 0.0
  endloop
endfacet
facet normal 0.0 0.0 -1.0
  outer loop
    vertex 7.11148703449809 5.3255988947721 -0.49999999999999994
    vertex 2.0148063111195023 2.325598894772101 -0.49999999999999994
    vertex 2.0148063111195023 5.3255988947721 -0.49999999999999994
  endloop
endfacet
facet normal 0.0 0.0 -1.0
  outer loop
    vertex 2.0148063111195023 2.325598894772101 -0.49999999999999994
    vertex 7.11148703449809 5.3255988947721 -0.49999999999999994
    vertex 4.11148703449809 2.325598894772101 -0.49999999999999994
  endloop
endfacet
facet normal 0.0 0.0 -1.0
  outer loop
    vertex 4.11148703449809 2.325598894772101 -0.49999999999999994
    vertex 7.11148703449809 5.3255988947721 -0.49999999999999994
    vertex 4.11148703449809 -2.674401105227915 -0.49999999999999994
  endloop
endfacet
facet normal 0.0 0.0 -1.0
  outer loop
    vertex 4.11148703449809 -2.674401105227915 -0.49999999999999994
    vertex 2.0148063111195023 -5.674401105227914 -0.49999999999999994
    vertex 2.0148063111195023 -2.674401105227915 -0.49999999999999994
  endloop
endfacet
facet normal 0.0 0.0 -1.0
  outer loop
    vertex 2.0148063111195023 -5.674401105227914 -0.49999999999999994
    vertex 4.11148703449809 -2.674401105227915 -0.49999999999999994
    vertex 7.11148703449809 -5.674401105227914 -0.49999999999999994
  endloop
endfacet
facet normal 0.0 0.0 -1.0
  outer loop
    vertex 7.11148703449809 -5.674401105227914 -0.49999999999999994
    vertex 4.11148703449809 -2.674401105227915 -0.49999999999999994
    vertex 7.11148703449809 5.3255988947721 -0.49999999999999994
  endloop
endfacet
facet normal -0.0 1.0 -0.0
  outer loop
    vertex 2.0148063111195023 5.3255988947721 0.0
    vertex 7.11148703449809 5.3255988947721 -0.49999999999999994
    vertex 2.0148063111195023 5.3255988947721 -0.49999999999999994
  endloop
endfacet
facet normal -0.0 1.0 -0.0
  outer loop
    vertex 7.11148703449809 5.3255988947721 -0.49999999999999994
    vertex 2.0148063111195023 5.3255988947721 0.0
    vertex 7.11148703449809 5.3255988947721 0.0
  endloop
endfacet
facet normal -0.0 -0.0 1.0
  outer loop
    vertex -6.888512965501921 -5.674401105227914 0.0
    vertex -5.388512965501921 -4.174401105227914 0.0
    vertex -6.888512965501921 5.3255988947721 0.0
  endloop
endfacet
facet normal -0.0 -0.0 1.0
  outer loop
    vertex -5.388512965501921 -4.174401105227914 0.0
    vertex -6.888512965501921 -5.674401105227914 0.0
    vertex -1.9851936888804997 -5.674401105227914 0.0
  endloop
endfacet
facet normal -0.0 -0.0 1.0
  outer loop
    vertex -5.388512965501921 -4.174401105227914 0.0
    vertex -1.9851936888804997 -5.674401105227914 0.0
    vertex -1.9851936888804997 -4.174401105227914 0.0
  endloop
endfacet
facet normal -0.0 -0.0 1.0
  outer loop
    vertex -6.888512965501921 5.3255988947721 0.0
    vertex -5.388512965501921 3.8255988947721007 0.0
    vertex -1.9851936888804997 5.3255988947721 0.0
  endloop
endfacet
facet normal -0.0 -0.0 1.0
  outer loop
    vertex -5.388512965501921 3.8255988947721007 0.0
    vertex -6.888512965501921 5.3255988947721 0.0
    vertex -5.388512965501921 -4.174401105227914 0.0
  endloop
endfacet
facet normal -0.0 -0.0 1.0
  outer loop
    vertex -1.9851936888804997 5.3255988947721 0.0
    vertex -5.388512965501921 3.8255988947721007 0.0
    vertex -1.9851936888804997 3.8255988947721007 0.0
  endloop
endfacet
facet normal -0.0 1.0 -0.0
  outer loop
    vertex -3.8885129655019215 -2.674401105227915 5.599999999999999
    vertex -1.9851936888804997 -2.674401105227915 -0.49999999999999994
    vertex -3.8885129655019215 -2.674401105227915 -0.49999999999999994
  endloop
endfacet
facet normal -0.0 1.0 -0.0
  outer loop
    vertex -1.9851936888804997 -2.674401105227915 -0.49999999999999994
    vertex -3.8885129655019215 -2.674401105227915 5.599999999999999
    vertex -1.9851936888804997 -2.674401105227915 4.982950670525045
  endloop
endfacet
facet normal -0.0 1.0 -0.0
  outer loop
    vertex -1.9851936888804997 -2.674401105227915 4.982950670525045
    vertex -3.8885129655019215 -2.674401105227915 5.599999999999999
    vertex 2.0148063111195023 -2.674401105227915 4.982950670525045
  endloop
endfacet
facet normal -0.0 1.0 -0.0
  outer loop
    vertex 2.0148063111195023 -2.674401105227915 4.982950670525045
    vertex 4.11148703449809 -2.674401105227915 -0.49999999999999994
    vertex 2.0148063111195023 -2.674401105227915 -0.49999999999999994
  endloop
endfacet
facet normal -0.0 1.0 -0.0
  outer loop
    vertex 4.11148703449809 -2.674401105227915 -0.49999999999999994
    vertex 2.0148063111195023 -2.674401105227915 4.982950670525045
    vertex 4.11148703449809 -2.674401105227915 5.599999999999999
  endloop
endfacet
facet normal -0.0 1.0 -0.0
  outer loop
    vertex 4.11148703449809 -2.674401105227915 5.599999999999999
    vertex 2.0148063111195023 -2.674401105227915 4.982950670525045
    vertex -3.8885129655019215 -2.674401105227915 5.599999999999999
  endloop
endfacet
facet normal 0.0 -1.0 0.0
  outer loop
    vertex -1.9851936888804997 -5.674401105227914 0.0
    vertex -6.888512965501921 -5.674401105227914 -0.49999999999999994
    vertex -1.9851936888804997 -5.674401105227914 -0.49999999999999994
  endloop
endfacet
facet normal 0.0 -1.0 0.0
  outer loop
    vertex -6.888512965501921 -5.674401105227914 -0.49999999999999994
    vertex -1.9851936888804997 -5.674401105227914 0.0
    vertex -6.888512965501921 -5.674401105227914 0.0
  endloop
endfacet
facet normal 0.0 0.0 -1.0
  outer loop
    vertex -6.888512965501921 5.3255988947721 -0.49999999999999994
    vertex -3.8885129655019215 2.325598894772101 -0.49999999999999994
    vertex -6.888512965501921 -5.674401105227914 -0.49999999999999994
  endloop
endfacet
facet normal 0.0 0.0 -1.0
  outer loop
    vertex -3.8885129655019215 2.325598894772101 -0.49999999999999994
    vertex -6.888512965501921 5.3255988947721 -0.49999999999999994
    vertex -1.9851936888804997 5.3255988947721 -0.49999999999999994
  endloop
endfacet
facet normal 0.0 0.0 -1.0
  outer loop
    vertex -3.8885129655019215 2.325598894772101 -0.49999999999999994
    vertex -1.9851936888804997 5.3255988947721 -0.49999999999999994
    vertex -1.9851936888804997 2.325598894772101 -0.49999999999999994
  endloop
endfacet
facet normal 0.0 0.0 -1.0
  outer loop
    vertex -6.888512965501921 -5.674401105227914 -0.49999999999999994
    vertex -3.8885129655019215 -2.674401105227915 -0.49999999999999994
    vertex -1.9851936888804997 -5.674401105227914 -0.49999999999999994
  endloop
endfacet
facet normal 0.0 0.0 -1.0
  outer loop
    vertex -3.8885129655019215 -2.674401105227915 -0.49999999999999994
    vertex -6.888512965501921 -5.674401105227914 -0.49999999999999994
    vertex -3.8885129655019215 2.325598894772101 -0.49999999999999994
  endloop
endfacet
facet normal 0.0 0.0 -1.0
  outer loop
    vertex -1.9851936888804997 -5.674401105227914 -0.49999999999999994
    vertex -3.8885129655019215 -2.674401105227915 -0.49999999999999994
    vertex -1.9851936888804997 -2.674401105227915 -0.49999999999999994
  endloop
endfacet
facet normal -0.0 1.0 -0.0
  outer loop
    vertex -5.388512965501921 3.8255988947721007 7.999999999999999
    vertex -1.9851936888804997 3.8255988947721007 0.0
    vertex -5.388512965501921 3.8255988947721007 0.0
  endloop
endfacet
facet normal -0.0 1.0 -0.0
  outer loop
    vertex -1.9851936888804997 3.8255988947721007 0.0
    vertex -5.388512965501921 3.8255988947721007 7.999999999999999
    vertex -1.9851936888804997 3.8255988947721007 4.982950670525045
  endloop
endfacet
facet normal -0.0 1.0 -0.0
  outer loop
    vertex -1.9851936888804997 3.8255988947721007 4.982950670525045
    vertex -5.388512965501921 3.8255988947721007 7.999999999999999
    vertex 2.0148063111195023 3.8255988947721007 4.982950670525045
  endloop
endfacet
facet normal -0.0 1.0 -0.0
  outer loop
    vertex 2.0148063111195023 3.8255988947721007 4.982950670525045
    vertex 5.61148703449809 3.8255988947721007 0.0
    vertex 2.0148063111195023 3.8255988947721007 0.0
  endloop
endfacet
facet normal -0.0 1.0 -0.0
  outer loop
    vertex 5.61148703449809 3.8255988947721007 0.0
    vertex 2.0148063111195023 3.8255988947721007 4.982950670525045
    vertex 5.61148703449809 3.8255988947721007 7.999999999999999
  endloop
endfacet
facet normal -0.0 1.0 -0.0
  outer loop
    vertex 5.61148703449809 3.8255988947721007 7.999999999999999
    vertex 2.0148063111195023 3.8255988947721007 4.982950670525045
    vertex -5.388512965501921 3.8255988947721007 7.999999999999999
  endloop
endfacet
facet normal 0.0 -1.0 0.0
  outer loop
    vertex 4.11148703449809 2.325598894772101 5.599999999999999
    vertex 2.0148063111195023 2.325598894772101 -0.49999999999999994
    vertex 4.11148703449809 2.325598894772101 -0.49999999999999994
  endloop
endfacet
facet normal 0.0 -1.0 0.0
  outer loop
    vertex 2.0148063111195023 2.325598894772101 -0.49999999999999994
    vertex 4.11148703449809 2.325598894772101 5.599999999999999
    vertex 2.0148063111195023 2.325598894772101 4.982950670525045
  endloop
endfacet
facet normal 0.0 -1.0 0.0
  outer loop
    vertex 2.0148063111195023 2.325598894772101 4.982950670525045
    vertex 4.11148703449809 2.325598894772101 5.599999999999999
    vertex -1.9851936888804997 2.325598894772101 4.982950670525045
  endloop
endfacet
facet normal 0.0 -1.0 0.0
  outer loop
    vertex -1.9851936888804997 2.325598894772101 4.982950670525045
    vertex -3.8885129655019215 2.325598894772101 -0.49999999999999994
    vertex -1.9851936888804997 2.325598894772101 -0.49999999999999994
  endloop
endfacet
facet normal 0.0 -1.0 0.0
  outer loop
    vertex -3.8885129655019215 2.325598894772101 -0.49999999999999994
    vertex -1.9851936888804997 2.325598894772101 4.982950670525045
    vertex -3.8885129655019215 2.325598894772101 5.599999999999999
  endloop
endfacet
facet normal 0.0 -1.0 0.0
  outer loop
    vertex -3.8885129655019215 2.325598894772101 5.599999999999999
    vertex -1.9851936888804997 2.325598894772101 4.982950670525045
    vertex 4.11148703449809 2.325598894772101 5.599999999999999
  endloop
endfacet
facet normal 1.0 -0.0 -0.0
  outer loop
    vertex -1.9851936888804997 2.325598894772101 -0.49999999999999994
    vertex -1.9851936888804997 3.8255988947721007 0.0
    vertex -1.9851936888804997 2.325598894772101 4.982950670525045
  endloop
endfacet
facet normal 1.0 -0.0 -0.0
  outer loop
    vertex -1.9851936888804997 3.8255988947721007 0.0
    vertex -1.9851936888804997 2.325598894772101 -0.49999999999999994
    vertex -1.9851936888804997 5.3255988947721 -0.49999999999999994
  endloop
endfacet
facet normal 1.0 -0.0 -0.0
  outer loop
    vertex -1.9851936888804997 3.8255988947721007 0.0
    vertex -1.9851936888804997 5.3255988947721 -0.49999999999999994
    vertex -1.9851936888804997 5.3255988947721 0.0
  endloop
endfacet
facet normal 1.0 -0.0 -0.0
  outer loop
    vertex -1.9851936888804997 3.8255988947721007 4.982950670525045
    vertex -1.9851936888804997 2.325598894772101 4.982950670525045
    vertex -1.9851936888804997 3.8255988947721007 0.0
  endloop
endfacet
facet normal 0.0 0.0 -1.0
  outer loop
    vertex 2.0148063111195023 3.8255988947721007 4.982950670525045
    vertex -1.9851936888804997 2.325598894772101 4.982950670525045
    vertex -1.9851936888804997 3.8255988947721007 4.982950670525045
  endloop
endfacet
facet normal 0.0 0.0 -1.0
  outer loop
    vertex -1.9851936888804997 2.325598894772101 4.982950670525045
    vertex 2.0148063111195023 3.8255988947721007 4.982950670525045
    vertex 2.0148063111195023 2.325598894772101 4.982950670525045
  endloop
endfacet
facet normal -1.0 0.0 0.0
  outer loop
    vertex 2.0148063111195023 3.8255988947721007 4.982950670525045
    vertex 2.0148063111195023 2.325598894772101 -0.49999999999999994
    vertex 2.0148063111195023 2.325598894772101 4.982950670525045
  endloop
endfacet
facet normal -1.0 0.0 0.0
  outer loop
    vertex 2.0148063111195023 2.325598894772101 -0.49999999999999994
    vertex 2.0148063111195023 3.8255988947721007 4.982950670525045
    vertex 2.0148063111195023 3.8255988947721007 0.0
  endloop
endfacet
facet normal -1.0 0.0 0.0
  outer loop
    vertex 2.0148063111195023 2.325598894772101 -0.49999999999999994
    vertex 2.0148063111195023 3.8255988947721007 0.0
    vertex 2.0148063111195023 5.3255988947721 -0.49999999999999994
  endloop
endfacet
facet normal -1.0 0.0 0.0
  outer loop
    vertex 2.0148063111195023 5.3255988947721 -0.49999999999999994
    vertex 2.0148063111195023 3.8255988947721007 0.0
    vertex 2.0148063111195023 5.3255988947721 0.0
  endloop
endfacet
facet normal 1.0 -0.0 -0.0
  outer loop
    vertex -1.9851936888804997 -2.674401105227915 -0.49999999999999994
    vertex -1.9851936888804997 -5.674401105227914 0.0
    vertex -1.9851936888804997 -5.674401105227914 -0.49999999999999994
  endloop
endfacet
facet normal 1.0 -0.0 -0.0
  outer loop
    vertex -1.9851936888804997 -5.674401105227914 0.0
    vertex -1.9851936888804997 -2.674401105227915 -0.49999999999999994
    vertex -1.9851936888804997 -4.174401105227914 0.0
  endloop
endfacet
facet normal 1.0 -0.0 -0.0
  outer loop
    vertex -1.9851936888804997 -4.174401105227914 0.0
    vertex -1.9851936888804997 -2.674401105227915 -0.49999999999999994
    vertex -1.9851936888804997 -4.174401105227914 4.982950670525045
  endloop
endfacet
facet normal 1.0 -0.0 -0.0
  outer loop
    vertex -1.9851936888804997 -4.174401105227914 4.982950670525045
    vertex -1.9851936888804997 -2.674401105227915 -0.49999999999999994
    vertex -1.9851936888804997 -2.674401105227915 4.982950670525045
  endloop
endfacet
facet normal 0.0 0.0 -1.0
  outer loop
    vertex 2.0148063111195023 -2.674401105227915 4.982950670525045
    vertex -1.9851936888804997 -4.174401105227914 4.982950670525045
    vertex -1.9851936888804997 -2.674401105227915 4.982950670525045
  endloop
endfacet
facet normal 0.0 0.0 -1.0
  outer loop
    vertex -1.9851936888804997 -4.174401105227914 4.982950670525045
    vertex 2.0148063111195023 -2.674401105227915 4.982950670525045
    vertex 2.0148063111195023 -4.174401105227914 4.982950670525045
  endloop
endfacet
facet normal -1.0 0.0 0.0
  outer loop
    vertex 2.0148063111195023 -2.674401105227915 4.982950670525045
    vertex 2.0148063111195023 -4.174401105227914 0.0
    vertex 2.0148063111195023 -4.174401105227914 4.982950670525045
  endloop
endfacet
facet normal -1.0 0.0 0.0
  outer loop
    vertex 2.0148063111195023 -4.174401105227914 0.0
    vertex 2.0148063111195023 -5.674401105227914 -0.49999999999999994
    vertex 2.0148063111195023 -5.674401105227914 0.0
  endloop
endfacet
facet normal -1.0 0.0 0.0
  outer loop
    vertex 2.0148063111195023 -5.674401105227914 -0.49999999999999994
    vertex 2.0148063111195023 -4.174401105227914 0.0
    vertex 2.0148063111195023 -2.674401105227915 -0.49999999999999994
  endloop
endfacet
facet normal -1.0 0.0 0.0
  outer loop
    vertex 2.0148063111195023 -2.674401105227915 -0.49999999999999994
    vertex 2.0148063111195023 -4.174401105227914 0.0
    vertex 2.0148063111195023 -2.674401105227915 4.982950670525045
  endloop
endfacet
endsolid car_button
